<svg width="20" height="20" viewBox="0 0 20 20" fill="none" xmlns="http://www.w3.org/2000/svg">
<path d="M12.4995 10.522V4.37484C12.4995 2.87907 11.2869 1.6665 9.79114 1.6665C8.29537 1.6665 7.0828 2.87907 7.0828 4.37484V10.522C6.0677 11.3232 5.41614 12.5646 5.41614 13.9582C5.41614 16.3744 7.37489 18.3332 9.79114 18.3332C12.2074 18.3332 14.1661 16.3744 14.1661 13.9582C14.1661 12.5646 13.5146 11.3232 12.4995 10.522Z" stroke="#A1A1A3" stroke-width="1.25" stroke-linejoin="round"/>
<circle cx="9.7915" cy="13.7499" r="1.25" fill="#A1A1A3"/>
<path d="M10.4165 9.7915C10.4165 9.44633 10.1367 9.1665 9.7915 9.1665C9.44633 9.1665 9.1665 9.44633 9.1665 9.7915H10.4165ZM10.4165 13.7498V9.7915H9.1665V13.7498H10.4165Z" fill="#A1A1A3"/>
</svg>
