<svg width="16" height="16" viewBox="0 0 16 16" fill="none" xmlns="http://www.w3.org/2000/svg">
<path d="M13.1 10.5066L8.43334 14.5066C8.39925 14.5291 8.36361 14.5491 8.32667 14.5666L8.24667 14.6199C8.08828 14.683 7.91173 14.683 7.75334 14.6199L7.67334 14.5666C7.6364 14.5491 7.60076 14.5291 7.56667 14.5066L2.90001 10.5066C2.62018 10.2673 2.58735 9.84641 2.82667 9.56659C3.066 9.28676 3.48685 9.25393 3.76667 9.49325L7.33334 12.5533V1.99992C7.33334 1.63173 7.63182 1.33325 8.00001 1.33325C8.3682 1.33325 8.66667 1.63173 8.66667 1.99992V12.5533L12.2333 9.49325C12.5132 9.25393 12.934 9.28676 13.1733 9.56659C13.4127 9.84641 13.3798 10.2673 13.1 10.5066V10.5066Z" fill="#A1A1A3"/>
</svg>
