<svg width="24" height="24" viewBox="0 0 24 24" fill="none" xmlns="http://www.w3.org/2000/svg">
<path fill-rule="evenodd" clip-rule="evenodd" d="M4.99985 8C4.99985 7.44772 5.44756 7 5.99985 7H18.4998C19.0521 7 19.4998 7.44772 19.4998 8C19.4998 8.55228 19.0521 9 18.4998 9H5.99985C5.44756 9 4.99985 8.55228 4.99985 8ZM7.99985 13C7.99985 12.4477 8.44756 12 8.99985 12H15.2498C15.8021 12 16.2498 12.4477 16.2498 13C16.2498 13.5523 15.8021 14 15.2498 14H8.99985C8.44756 14 7.99985 13.5523 7.99985 13ZM5.99985 17C5.44756 17 4.99985 17.4477 4.99985 18C4.99985 18.5523 5.44756 19 5.99985 19H18.4998C19.0521 19 19.4998 18.5523 19.4998 18C19.4998 17.4477 19.0521 17 18.4998 17H5.99985Z" fill="#6F6F6F"/>
</svg>
