<svg width="24" height="24" viewBox="0 0 24 24" fill="none" xmlns="http://www.w3.org/2000/svg">
<rect x="19.5" y="15" width="4" height="9" rx="1" transform="rotate(-180 19.5 15)" stroke="#6F6F6F" stroke-width="2"/>
<path d="M15.5 14L14.5202 14.4899C13.863 14.8185 13.3493 15.3768 13.0764 16.059L11.8977 19.0058C11.6575 19.6063 11.0759 20 10.4292 20V20C9.43117 20 8.68262 19.0869 8.87835 18.1082L9.5 15L6.70998 15C5.52673 15 4.60216 13.9784 4.7199 12.801L5.20149 7.98511C5.36635 6.33648 6.83648 5.13365 8.48511 5.29851L12.7985 5.72985C14.3321 5.88321 15.5 7.17371 15.5 8.71496L15.5 14Z" stroke="#6F6F6F" stroke-width="2"/>
</svg>
