<svg width="24" height="24" viewBox="0 0 24 24" fill="none" xmlns="http://www.w3.org/2000/svg">
<path d="M10.25 14.5C10.5272 14.5 10.7919 14.385 10.981 14.1823L17.9811 6.68232C18.3579 6.27857 18.3361 5.64578 17.9323 5.26895C17.5286 4.89211 16.8958 4.91394 16.5189 5.31768L10.25 12.0344L7.48106 9.06769C7.10423 8.66394 6.47144 8.64212 6.06769 9.01895C5.66394 9.39578 5.64211 10.0286 6.01895 10.4323L9.51893 14.1823C9.70806 14.385 9.97281 14.5 10.25 14.5Z" fill="#6F6F6F"/>
<path fill-rule="evenodd" clip-rule="evenodd" d="M6.75 17C6.19772 17 5.75 17.4477 5.75 18C5.75 18.5523 6.19772 19 6.75 19H17.25C17.8023 19 18.25 18.5523 18.25 18C18.25 17.4477 17.8023 17 17.25 17H6.75Z" fill="#6F6F6F"/>
</svg>
