<svg width="28" height="28" viewBox="0 0 28 28" fill="none" xmlns="http://www.w3.org/2000/svg">
<path d="M17.705 14.7192V6.25369C17.705 4.1938 16.0351 2.52393 13.9752 2.52393C11.9153 2.52393 10.2454 4.1938 10.2454 6.25369V14.7192C8.84749 15.8226 7.9502 17.5322 7.9502 19.4513C7.9502 22.7788 10.6477 25.4763 13.9752 25.4763C17.3027 25.4763 20.0002 22.7788 20.0002 19.4513C20.0002 17.5322 19.1029 15.8226 17.705 14.7192Z" fill="#EFC0BD"/>
<circle cx="13.9753" cy="19.1643" r="1.72143" fill="#FF908A"/>
<path d="M14.6894 11.9917C14.6894 11.5972 14.3696 11.2774 13.9751 11.2774C13.5806 11.2774 13.2608 11.5972 13.2608 11.9917H14.6894ZM14.6894 19.1643V11.9917H13.2608V19.1643H14.6894Z" fill="#FF908A"/>
</svg>
