<svg width="32" height="32" viewBox="0 0 32 32" fill="none" xmlns="http://www.w3.org/2000/svg">
<path fill-rule="evenodd" clip-rule="evenodd" d="M9.34124 9.35617C9.5598 9.13745 9.8562 9.01459 10.1652 9.01459C10.4743 9.01459 10.7707 9.13745 10.9892 9.35617L15.9927 14.3647L20.9962 9.35617C21.1037 9.24474 21.2323 9.15586 21.3745 9.09472C21.5167 9.03357 21.6696 9.00139 21.8244 9.00004C21.9791 8.9987 22.1326 9.02822 22.2758 9.08688C22.4191 9.14554 22.5492 9.23217 22.6586 9.34171C22.7681 9.45125 22.8546 9.58151 22.9132 9.72489C22.9718 9.86827 23.0013 10.0219 23 10.1768C22.9986 10.3317 22.9665 10.4848 22.9054 10.6271C22.8443 10.7695 22.7555 10.8982 22.6442 11.0058L17.6407 16.0143L22.6442 21.0228C22.8565 21.2429 22.974 21.5376 22.9713 21.8435C22.9687 22.1494 22.8461 22.442 22.63 22.6583C22.4139 22.8746 22.1216 22.9973 21.816 23C21.5104 23.0026 21.216 22.885 20.9962 22.6725L15.9927 17.664L10.9892 22.6725C10.7694 22.885 10.475 23.0026 10.1694 23C9.86385 22.9973 9.57153 22.8746 9.35544 22.6583C9.13935 22.442 9.01677 22.1494 9.01412 21.8435C9.01146 21.5376 9.12894 21.2429 9.34124 21.0228L14.3447 16.0143L9.34124 11.0058C9.12274 10.7871 9 10.4904 9 10.181C9 9.87164 9.12274 9.57495 9.34124 9.35617Z" fill="#62626C"/>
</svg>
