<svg width="24" height="24" viewBox="0 0 24 24" fill="none" xmlns="http://www.w3.org/2000/svg">
<rect x="5" y="6" width="14" height="13" rx="1" stroke="#6F6F6F" stroke-width="2"/>
<rect x="4.5" y="8.5" width="15" height="1" fill="#6F6F6F" stroke="#6F6F6F"/>
<rect x="8" y="3" width="2" height="3" rx="1" fill="#6F6F6F"/>
<rect x="14" y="3" width="2" height="3" rx="1" fill="#6F6F6F"/>
<path d="M10.4095 11.581C10.6255 11.581 10.8175 11.612 10.9855 11.674C11.1535 11.734 11.2955 11.816 11.4115 11.92C11.5275 12.024 11.6155 12.145 11.6755 12.283C11.7355 12.419 11.7655 12.563 11.7655 12.715C11.7655 12.853 11.7515 12.975 11.7235 13.081C11.6955 13.185 11.6535 13.276 11.5975 13.354C11.5435 13.43 11.4755 13.495 11.3935 13.549C11.3135 13.603 11.2215 13.648 11.1175 13.684C11.6015 13.852 11.8435 14.181 11.8435 14.671C11.8435 14.903 11.8015 15.105 11.7175 15.277C11.6335 15.449 11.5205 15.592 11.3785 15.706C11.2385 15.82 11.0755 15.906 10.8895 15.964C10.7035 16.02 10.5095 16.048 10.3075 16.048C10.0995 16.048 9.91453 16.026 9.75253 15.982C9.59053 15.936 9.44653 15.866 9.32053 15.772C9.19453 15.676 9.08353 15.554 8.98753 15.406C8.89353 15.258 8.81153 15.082 8.74153 14.878L9.15553 14.71C9.19153 14.694 9.22653 14.683 9.26053 14.677C9.29653 14.671 9.33153 14.668 9.36553 14.668C9.42953 14.668 9.48653 14.681 9.53653 14.707C9.58853 14.731 9.62753 14.767 9.65353 14.815C9.74353 14.981 9.83853 15.102 9.93853 15.178C10.0405 15.252 10.1595 15.289 10.2955 15.289C10.3995 15.289 10.4895 15.272 10.5655 15.238C10.6435 15.202 10.7075 15.157 10.7575 15.103C10.8095 15.047 10.8485 14.984 10.8745 14.914C10.9005 14.844 10.9135 14.773 10.9135 14.701C10.9135 14.607 10.9065 14.523 10.8925 14.449C10.8805 14.373 10.8445 14.308 10.7845 14.254C10.7245 14.2 10.6335 14.159 10.5115 14.131C10.3915 14.101 10.2235 14.086 10.0075 14.086V13.444C10.1895 13.444 10.3365 13.43 10.4485 13.402C10.5605 13.374 10.6465 13.336 10.7065 13.288C10.7685 13.238 10.8095 13.178 10.8295 13.108C10.8495 13.038 10.8595 12.961 10.8595 12.877C10.8595 12.705 10.8175 12.573 10.7335 12.481C10.6515 12.387 10.5255 12.34 10.3555 12.34C10.2855 12.34 10.2215 12.35 10.1635 12.37C10.1055 12.39 10.0535 12.417 10.0075 12.451C9.96153 12.485 9.92153 12.525 9.88753 12.571C9.85553 12.617 9.82953 12.667 9.80953 12.721C9.77753 12.811 9.73653 12.876 9.68653 12.916C9.63853 12.956 9.57253 12.976 9.48853 12.976C9.46853 12.976 9.44653 12.975 9.42253 12.973C9.40053 12.971 9.37753 12.968 9.35353 12.964L8.86153 12.877C8.89353 12.659 8.95453 12.469 9.04453 12.307C9.13653 12.145 9.24953 12.01 9.38353 11.902C9.51953 11.794 9.67453 11.714 9.84853 11.662C10.0225 11.608 10.2095 11.581 10.4095 11.581ZM15.36 13.813C15.36 14.195 15.319 14.526 15.237 14.806C15.155 15.086 15.041 15.318 14.895 15.502C14.751 15.686 14.579 15.823 14.379 15.913C14.181 16.003 13.966 16.048 13.734 16.048C13.502 16.048 13.287 16.003 13.089 15.913C12.893 15.823 12.723 15.686 12.579 15.502C12.435 15.318 12.322 15.086 12.24 14.806C12.16 14.526 12.12 14.195 12.12 13.813C12.12 13.431 12.16 13.1 12.24 12.82C12.322 12.54 12.435 12.308 12.579 12.124C12.723 11.94 12.893 11.804 13.089 11.716C13.287 11.626 13.502 11.581 13.734 11.581C13.966 11.581 14.181 11.626 14.379 11.716C14.579 11.804 14.751 11.94 14.895 12.124C15.041 12.308 15.155 12.54 15.237 12.82C15.319 13.1 15.36 13.431 15.36 13.813ZM14.4 13.813C14.4 13.511 14.381 13.264 14.343 13.072C14.305 12.878 14.254 12.726 14.19 12.616C14.128 12.506 14.057 12.431 13.977 12.391C13.897 12.349 13.816 12.328 13.734 12.328C13.652 12.328 13.571 12.349 13.491 12.391C13.413 12.431 13.343 12.506 13.281 12.616C13.221 12.726 13.172 12.878 13.134 13.072C13.098 13.264 13.08 13.511 13.08 13.813C13.08 14.117 13.098 14.365 13.134 14.557C13.172 14.749 13.221 14.901 13.281 15.013C13.343 15.123 13.413 15.199 13.491 15.241C13.571 15.281 13.652 15.301 13.734 15.301C13.816 15.301 13.897 15.281 13.977 15.241C14.057 15.199 14.128 15.123 14.19 15.013C14.254 14.901 14.305 14.749 14.343 14.557C14.381 14.365 14.4 14.117 14.4 13.813Z" fill="#6F6F6F"/>
</svg>
