<svg width="40" height="40" viewBox="0 0 40 40" fill="none" xmlns="http://www.w3.org/2000/svg">
<path fill-rule="evenodd" clip-rule="evenodd" d="M18.6489 6.20838V2.84717H20.8897V6.20838H18.6489ZM12.0176 20H9.79183C9.73268 19.3711 9.68571 18.7758 9.68571 18.5328C9.68571 12.9638 14.2003 8.44918 19.7693 8.44918C25.3384 8.44918 29.853 12.9638 29.853 18.5328C29.853 19.0311 29.8168 19.521 29.747 20H27.4751C27.5651 19.5247 27.6122 19.0343 27.6122 18.5328C27.6122 14.2013 24.1008 10.69 19.7693 10.69C15.4379 10.69 11.9265 14.2013 11.9265 18.5328C11.9265 19.2238 11.963 19.6886 12.0176 20ZM29.8824 11.4003L32.7933 9.71969L33.9137 11.6603L31.0028 13.3409L29.8824 11.4003ZM26.6419 4.38854L24.9613 7.29943L26.9019 8.41984L28.5825 5.50894L26.6419 4.38854ZM12.6368 8.41984L10.9562 5.50894L12.8968 4.38854L14.5774 7.29943L12.6368 8.41984ZM5.625 11.6603L8.53589 13.3409L9.65629 11.4003L6.7454 9.71969L5.625 11.6603ZM35.455 17.4124H32.0938V19.6532H35.455V17.4124Z" fill="url(#paint0_linear_544_35937)"/>
<path d="M7.73633 19.6533L4.37512 19.6533L4.37512 17.4125L7.73633 17.4125L7.73633 19.6533Z" fill="url(#paint1_linear_544_35937)"/>
<path fill-rule="evenodd" clip-rule="evenodd" d="M21.3498 25.7246L20.6252 25L19.906 25.7192C19.9022 25.7228 19.8986 25.7264 19.8949 25.7301L13.323 32.302C13.3193 32.3057 13.3157 32.3094 13.312 32.3131L12.6055 33.0197L11.8752 33.7499L13.3357 35.2103L14.0659 34.4801L19.5924 28.9536L19.5924 38.6095V39.6422H21.6578V38.6095L21.6578 28.9535L27.1844 34.4801L27.9146 35.2103L29.3751 33.7499L28.6449 33.0197L27.9327 32.3076C27.9309 32.3057 27.9291 32.3039 27.9272 32.302L21.3554 25.7302L21.3553 25.7301C21.3535 25.7283 21.3516 25.7264 21.3498 25.7246Z" fill="url(#paint2_linear_544_35937)"/>
<rect x="3.125" y="21.875" width="33.75" height="2.125" fill="#D9E2F3"/>
<defs>
<linearGradient id="paint0_linear_544_35937" x1="20.54" y1="2.84717" x2="20.54" y2="20" gradientUnits="userSpaceOnUse">
<stop stop-color="#EFC977"/>
<stop offset="1" stop-color="#E07256"/>
</linearGradient>
<linearGradient id="paint1_linear_544_35937" x1="8.12512" y1="20.0002" x2="6.05572" y2="17.4125" gradientUnits="userSpaceOnUse">
<stop stop-color="#E17657"/>
<stop offset="1" stop-color="#E79764"/>
</linearGradient>
<linearGradient id="paint2_linear_544_35937" x1="20.6252" y1="25" x2="20.6252" y2="39.6423" gradientUnits="userSpaceOnUse">
<stop stop-color="#B2D4F7"/>
<stop offset="1" stop-color="#D9E2F3"/>
</linearGradient>
</defs>
</svg>
