<svg width="24" height="24" viewBox="0 0 24 24" fill="none" xmlns="http://www.w3.org/2000/svg">
<path d="M3 17.0015V6.00146C3 5.44918 3.44772 5.00146 4 5.00146H6.98918C7.54112 5.00146 7.98869 5.44863 7.98918 6.00056L7.9991 17.0006C7.9996 17.5532 7.55174 18.0015 6.9991 18.0015H4C3.44772 18.0015 3 17.5538 3 17.0015Z" stroke="#6F6F6F" stroke-width="2"/>
<path d="M8 16.9995V5.99951C8 5.44723 8.44772 4.99951 9 4.99951H11.9892C12.5411 4.99951 12.9887 5.44668 12.9892 5.99861L12.9991 16.9986C12.9996 17.5512 12.5517 17.9995 11.9991 17.9995H9C8.44772 17.9995 8 17.5518 8 16.9995Z" stroke="#6F6F6F" stroke-width="2"/>
<path d="M17.0959 17.1306L14.2729 7.17835C14.1222 6.64703 14.4307 6.09413 14.962 5.94342L17.6253 5.18797C18.1562 5.03735 18.7089 5.34541 18.86 5.87625L21.692 15.8259C21.8433 16.3574 21.5348 16.9109 21.0031 17.0617L18.3309 17.8197C17.7995 17.9704 17.2466 17.6619 17.0959 17.1306Z" stroke="#6F6F6F" stroke-width="2"/>
</svg>
