<svg width="24" height="27" viewBox="0 0 24 27" fill="none" xmlns="http://www.w3.org/2000/svg">
<path fill-rule="evenodd" clip-rule="evenodd" d="M7.50417 9.53764C7.27636 9.30983 7.27636 8.94048 7.50417 8.71268L11.5875 4.62932C11.8153 4.40151 12.1847 4.40151 12.4125 4.62932L16.4959 8.71268C16.7237 8.94049 16.7237 9.30983 16.4959 9.53764C16.2681 9.76545 15.8987 9.76545 15.6709 9.53764L12 5.86676L8.32913 9.53764C8.10132 9.76545 7.73198 9.76545 7.50417 9.53764Z" fill="#62626C"/>
<path fill-rule="evenodd" clip-rule="evenodd" d="M16.4958 17.4624C16.7236 17.6902 16.7236 18.0595 16.4958 18.2873L12.4125 22.3707C12.1847 22.5985 11.8153 22.5985 11.5875 22.3707L7.50414 18.2873C7.27633 18.0595 7.27633 17.6902 7.50414 17.4624C7.73195 17.2346 8.1013 17.2346 8.3291 17.4624L12 21.1332L15.6709 17.4624C15.8987 17.2346 16.268 17.2346 16.4958 17.4624Z" fill="#62626C"/>
</svg>
