<svg width="24" height="24" viewBox="0 0 24 24" fill="none" xmlns="http://www.w3.org/2000/svg">
<g clip-path="url(#clip0_297_54229)">
<path fill-rule="evenodd" clip-rule="evenodd" d="M12 21.5999C14.5461 21.5999 16.9879 20.5885 18.7882 18.7881C20.5886 16.9878 21.6 14.546 21.6 11.9999C21.6 9.45382 20.5886 7.01203 18.7882 5.21168C16.9879 3.41133 14.5461 2.3999 12 2.3999C9.45395 2.3999 7.01215 3.41133 5.2118 5.21168C3.41145 7.01203 2.40002 9.45382 2.40002 11.9999C2.40002 14.546 3.41145 16.9878 5.2118 18.7881C7.01215 20.5885 9.45395 21.5999 12 21.5999ZM16.4484 10.4483C16.667 10.222 16.788 9.91886 16.7852 9.60422C16.7825 9.28959 16.6563 8.98861 16.4338 8.76612C16.2113 8.54363 15.9103 8.41743 15.5957 8.41469C15.2811 8.41196 14.9779 8.53291 14.7516 8.7515L10.8 12.7031L9.24842 11.1515C9.0221 10.9329 8.71898 10.812 8.40434 10.8147C8.08971 10.8174 7.78873 10.9436 7.56624 11.1661C7.34375 11.3886 7.21755 11.6896 7.21482 12.0042C7.21208 12.3189 7.33303 12.622 7.55162 12.8483L9.95162 15.2483C10.1767 15.4733 10.4818 15.5996 10.8 15.5996C11.1182 15.5996 11.4234 15.4733 11.6484 15.2483L16.4484 10.4483Z" fill="#5C94FF"/>
</g>
<defs>
<clipPath id="clip0_297_54229">
<rect width="24" height="24" fill="white"/>
</clipPath>
</defs>
</svg>
