<svg width="24" height="24" viewBox="0 0 24 24" fill="none" xmlns="http://www.w3.org/2000/svg">
<path d="M22 12C22 17.5228 17.5228 22 12 22C8.24133 22 4.96699 19.9263 3.25866 16.8606C5.04941 16.5987 5.43218 14.1546 5.8283 11.6252L5.82838 11.6247C5.86946 11.3624 5.9107 11.099 5.95366 10.8372C6.11974 9.82499 6.2933 9.44186 6.65134 9.44186C7.00937 9.44186 7.18293 9.82499 7.34901 10.8372C7.392 11.0992 7.43325 11.3626 7.47436 11.6251C7.8936 14.3021 8.2979 16.8837 10.3723 16.8837C12.4466 16.8837 12.8509 14.3022 13.2702 11.6252C13.3113 11.3627 13.3525 11.0992 13.3955 10.8372C13.5616 9.82499 13.7352 9.44186 14.0932 9.44186C14.4512 9.44186 14.6248 9.82499 14.7909 10.8372C14.8339 11.0992 14.8751 11.3627 14.9162 11.6252C15.3355 14.3022 15.7398 16.8837 17.8141 16.8837C19.8885 16.8837 20.2928 14.3022 20.712 11.6252C20.7531 11.3627 20.7944 11.0992 20.8374 10.8372C21.0035 9.82499 21.177 9.44186 21.5351 9.44186C21.6511 9.44186 21.6803 9.47944 21.7075 9.58934C21.8986 10.3614 22 11.1689 22 12Z" fill="#6F6F6F"/>
<path d="M2 12C2 12.3631 2.01511 12.9328 2.1053 13.456C2.27501 14.4405 2.47055 15.0233 2.93041 15.0233C3.39026 15.0233 3.57154 14.3605 3.74759 13.0767C3.78373 12.8394 3.81819 12.5875 3.85396 12.3261L3.85403 12.3256C3.98436 11.373 4.13204 10.2935 4.44146 9.33278C4.84654 8.12799 5.51236 7.11628 6.65134 7.11628C7.79031 7.11628 8.45613 8.12799 8.86121 9.33278C9.17063 10.2935 9.31831 11.3729 9.44864 12.3256C9.48443 12.5872 9.51892 12.8393 9.55509 13.0767C9.73113 14.3605 9.91241 15.0233 10.3723 15.0233C10.8321 15.0233 11.0134 14.3605 11.1894 13.0767C11.2256 12.8393 11.2601 12.5872 11.2959 12.3256C11.4262 11.3729 11.5739 10.2935 11.8833 9.33278C12.2884 8.12799 12.9542 7.11628 14.0932 7.11628C15.2322 7.11628 15.898 8.12799 16.3031 9.33278C16.6125 10.2935 16.7602 11.3729 16.8905 12.3256C16.9263 12.5872 16.9608 12.8393 16.9969 13.0767C17.173 14.3605 17.3543 15.0233 17.8141 15.0233C18.274 15.0233 18.4553 14.3605 18.6313 13.0767C18.6675 12.8393 18.702 12.5872 18.7378 12.3256C18.8681 11.3729 19.0158 10.2935 19.3252 9.33278C19.6359 8.40873 20.0999 7.59827 20.8132 7.27073C19.126 4.13306 15.8121 2 12 2C6.47715 2 2 6.47715 2 12Z" fill="#6F6F6F"/>
</svg>
