<svg width="24" height="24" viewBox="0 0 24 24" fill="none" xmlns="http://www.w3.org/2000/svg">
<g clip-path="url(#clip0_322_14305)">
<path fill-rule="evenodd" clip-rule="evenodd" d="M11.8985 8.37089C11.1565 9.11288 11.1565 10.3159 11.8985 11.0579L12.0409 11.2003L11.9678 11.2735L6.99378 16.2475C5.60786 17.6334 6.58941 20.0031 8.54941 20.0031L14.4891 20.0031C15.0726 20.0031 15.6322 19.7713 16.0447 19.3588L18.0489 17.3546L18.1221 17.2814L18.2625 17.4219C19.0045 18.1638 20.2075 18.1638 20.9495 17.4219L23.0708 15.3005C23.4223 14.9491 23.4223 14.3792 23.0708 14.0277C22.7193 13.6763 22.1495 13.6763 21.798 14.0277L19.6767 16.1491C19.6376 16.1881 19.5743 16.1881 19.5353 16.1491L13.1713 9.7851C13.1323 9.74605 13.1323 9.68273 13.1713 9.64368L15.2926 7.52236C15.6441 7.17089 15.6441 6.60104 15.2926 6.24957C14.9412 5.89809 14.3713 5.89809 14.0198 6.24957L11.8985 8.37089ZM8.94941 18.2031L9.89563 18.2031L10.1293 18.2031L14.4891 18.2031C14.5952 18.2031 14.6969 18.161 14.7719 18.086L15.5033 17.3546L16.7761 16.0818L15.5033 14.809L14.5134 13.8191L13.2406 12.5463L11.9678 13.8191L9.38372 16.4031L9.21849 16.5684L8.54941 17.2374L8.26657 17.5203C8.01458 17.7723 8.19305 18.2031 8.54941 18.2031L8.94941 18.2031Z" fill="#6F6F6F"/>
<rect x="1" y="18.2012" width="5" height="1.79861" rx="0.899307" fill="#6F6F6F"/>
</g>
<defs>
<clipPath id="clip0_322_14305">
<rect width="24" height="24" fill="white"/>
</clipPath>
</defs>
</svg>
