<svg width="24" height="24" viewBox="0 0 24 24" fill="none" xmlns="http://www.w3.org/2000/svg">
<path d="M20.5888 11.3326L4.08876 3.08263C3.95943 3.01795 3.81417 2.99204 3.67046 3.00801C3.52676 3.02397 3.39073 3.08114 3.27876 3.17263C3.17182 3.26225 3.09201 3.37992 3.04829 3.51241C3.00457 3.6449 2.99867 3.78697 3.03126 3.92263L5.25126 12.0001L3.00126 20.0551C2.97068 20.1684 2.96711 20.2873 2.99083 20.4022C3.01456 20.5171 3.06493 20.6249 3.13788 20.7168C3.21082 20.8087 3.30432 20.8822 3.41086 20.9315C3.51739 20.9807 3.63398 21.0042 3.75126 21.0001C3.86866 20.9994 3.98426 20.9712 4.08876 20.9176L20.5888 12.6676C20.7116 12.6047 20.8147 12.5091 20.8867 12.3913C20.9587 12.2735 20.9968 12.1382 20.9968 12.0001C20.9968 11.8621 20.9587 11.7267 20.8867 11.609C20.8147 11.4912 20.7116 11.3956 20.5888 11.3326ZM4.91376 18.8326L6.57126 12.7501H13.5013V11.2501H6.57126L4.91376 5.16763L18.5713 12.0001L4.91376 18.8326Z" fill="#6F6F6F"/>
</svg>
