<svg width="24" height="24" viewBox="0 0 24 24" fill="none" xmlns="http://www.w3.org/2000/svg">
<path d="M4.23486 12.0009C4.23486 11.2713 4.23486 10.6034 4.23486 9.9998C4.23486 7.79066 6.02572 6 8.23486 6H18.2349" stroke="#6F6F6F" stroke-width="2" stroke-linecap="round" stroke-linejoin="round"/>
<path d="M16.9055 3.37785L19.6997 6.17197C19.7387 6.21102 19.7387 6.27433 19.6997 6.31339L16.9055 9.1075C16.8848 9.12822 16.8676 9.13442 16.8542 9.13673C16.8382 9.13951 16.8177 9.13795 16.7966 9.12918C16.7754 9.12041 16.7598 9.10705 16.7504 9.09373C16.7426 9.08267 16.7348 9.0661 16.7348 9.03679L16.7348 3.44856C16.7348 3.41925 16.7426 3.40268 16.7504 3.39162C16.7598 3.3783 16.7754 3.36495 16.7966 3.35618C16.8177 3.34741 16.8382 3.34584 16.8542 3.34862C16.8676 3.35093 16.8848 3.35713 16.9055 3.37785Z" fill="#6F6F6F" stroke="#6F6F6F"/>
<path d="M19.2349 11.0001C19.2349 11.7297 19.2349 12.3976 19.2349 13.0012C19.2349 15.2103 17.444 17.001 15.2349 17.001H5.23486" stroke="#6F6F6F" stroke-width="2" stroke-linecap="round" stroke-linejoin="round"/>
<path d="M6.572 19.8663L3.77789 17.0722C3.73884 17.0331 3.73884 16.9698 3.77789 16.9308L6.572 14.1366C6.59273 14.1159 6.60997 14.1097 6.62329 14.1074C6.63935 14.1046 6.65981 14.1062 6.68098 14.115C6.70215 14.1237 6.71772 14.1371 6.72711 14.1504C6.7349 14.1615 6.74271 14.178 6.74271 14.2074L6.74271 19.7956C6.74271 19.8249 6.7349 19.8415 6.72711 19.8525C6.71772 19.8658 6.70215 19.8792 6.68098 19.888C6.65981 19.8967 6.63935 19.8983 6.62329 19.8955C6.60997 19.8932 6.59273 19.887 6.572 19.8663Z" fill="#6F6F6F" stroke="#6F6F6F"/>
</svg>
