<svg width="24" height="24" viewBox="0 0 24 24" fill="none" xmlns="http://www.w3.org/2000/svg">
<g clip-path="url(#clip0_918_7436)">
<path fill-rule="evenodd" clip-rule="evenodd" d="M21.6001 11H20.5301C20.071 7.37981 17.2203 4.52909 13.6001 4.07V3C13.6001 2.44772 13.1524 2 12.6001 2C12.0478 2 11.6001 2.44772 11.6001 3V4.07C7.97991 4.52909 5.12918 7.37981 4.6701 11H3.6001C3.04781 11 2.6001 11.4477 2.6001 12C2.6001 12.5523 3.04781 13 3.6001 13H4.6701C5.12918 16.6202 7.97991 19.4709 11.6001 19.93V21C11.6001 21.5523 12.0478 22 12.6001 22C13.1524 22 13.6001 21.5523 13.6001 21V19.93C17.2203 19.4709 20.071 16.6202 20.5301 13H21.6001C22.1524 13 22.6001 12.5523 22.6001 12C22.6001 11.4477 22.1524 11 21.6001 11ZM9.6001 12C9.6001 10.3431 10.9432 9 12.6001 9C14.257 9 15.6001 10.3431 15.6001 12C15.6001 13.6569 14.257 15 12.6001 15C10.9432 15 9.6001 13.6569 9.6001 12ZM11.6001 12C11.6001 12.5523 12.0478 13 12.6001 13C13.1524 13 13.6001 12.5523 13.6001 12C13.6001 11.4477 13.1524 11 12.6001 11C12.0478 11 11.6001 11.4477 11.6001 12ZM12.6001 16.91C13.1524 16.91 13.6001 17.3577 13.6001 17.91C16.1138 17.4828 18.0829 15.5137 18.5101 13C17.9578 13 17.5101 12.5523 17.5101 12C17.5101 11.4477 17.9578 11 18.5101 11C18.0829 8.48633 16.1138 6.51716 13.6001 6.09C13.6001 6.64228 13.1524 7.09 12.6001 7.09C12.0478 7.09 11.6001 6.64228 11.6001 6.09C9.08642 6.51716 7.11726 8.48633 6.6901 11C7.24238 11 7.6901 11.4477 7.6901 12C7.6901 12.5523 7.24238 13 6.6901 13C7.11726 15.5137 9.08642 17.4828 11.6001 17.91C11.6001 17.3577 12.0478 16.91 12.6001 16.91Z" fill="#62626C"/>
</g>
<defs>
<clipPath id="clip0_918_7436">
<rect width="24" height="24" fill="white"/>
</clipPath>
</defs>
</svg>
