<svg width="20" height="20" viewBox="0 0 20 20" fill="none" xmlns="http://www.w3.org/2000/svg">
<path d="M1.66675 4.375L3.06043 5.21121C3.49616 5.47265 4.02735 5.52102 4.50313 5.34261L6.49821 4.59445C6.87552 4.45296 7.29131 4.45296 7.66862 4.59445L9.79013 5.39002C10.1923 5.54082 10.6371 5.53056 11.0319 5.36138L12.6769 4.65637C13.0961 4.47669 13.5707 4.47669 13.9899 4.65637L15.4668 5.28931C15.9587 5.50012 16.5219 5.4619 16.9808 5.18655L18.3334 4.375" stroke="#A1A1A3" stroke-width="1.25" stroke-linecap="round"/>
<path d="M1.66675 9.375L3.06043 10.2112C3.49616 10.4726 4.02735 10.521 4.50313 10.3426L6.49821 9.59445C6.87552 9.45296 7.29131 9.45296 7.66862 9.59445L9.79013 10.39C10.1923 10.5408 10.6371 10.5306 11.0319 10.3614L12.6769 9.65637C13.0961 9.47669 13.5707 9.47669 13.9899 9.65637L15.4668 10.2893C15.9587 10.5001 16.5219 10.4619 16.9808 10.1866L18.3334 9.375" stroke="#A1A1A3" stroke-width="1.25" stroke-linecap="round"/>
<path d="M1.66675 14.375L3.06043 15.2112C3.49616 15.4726 4.02735 15.521 4.50313 15.3426L6.49821 14.5945C6.87552 14.453 7.29131 14.453 7.66862 14.5945L9.79013 15.39C10.1923 15.5408 10.6371 15.5306 11.0319 15.3614L12.6769 14.6564C13.0961 14.4767 13.5707 14.4767 13.9899 14.6564L15.4668 15.2893C15.9587 15.5001 16.5219 15.4619 16.9808 15.1866L18.3334 14.375" stroke="#A1A1A3" stroke-width="1.25" stroke-linecap="round"/>
</svg>
