<svg width="24" height="24" viewBox="0 0 24 24" fill="none" xmlns="http://www.w3.org/2000/svg">
<path fill-rule="evenodd" clip-rule="evenodd" d="M16 5.5C16.5523 5.5 17 5.94772 17 6.5V9H18C18.5523 9 19 9.44772 19 10C19 10.5523 18.5523 11 18 11H17V17.5C17 18.0523 16.5523 18.5 16 18.5C15.4477 18.5 15 18.0523 15 17.5V6.5C15 5.94772 15.4477 5.5 16 5.5ZM5 7.5C5 6.94772 5.44772 6.5 6 6.5H11.5C12.0523 6.5 12.5 6.94772 12.5 7.5V10C12.5 10.2652 12.3946 10.5196 12.2071 10.7071L6.70711 16.2071C6.31658 16.5976 5.68342 16.5976 5.29289 16.2071C4.90237 15.8166 4.90237 15.1834 5.29289 14.7929L10.5 9.58579V8.5H6C5.44772 8.5 5 8.05228 5 7.5Z" fill="#6F6F6F"/>
</svg>
