<svg width="20" height="20" viewBox="0 0 20 20" fill="none" xmlns="http://www.w3.org/2000/svg">
<path fill-rule="evenodd" clip-rule="evenodd" d="M6.25018 3L6.25018 4.55713H5.0002C3.72994 4.55713 2.7002 5.58688 2.7002 6.85713V15.1428C2.7002 16.4131 3.72994 17.4428 5.0002 17.4428H15.0002C16.2705 17.4428 17.3002 16.4131 17.3002 15.1428V6.85713C17.3002 5.58687 16.2705 4.55713 15.0002 4.55713H13.7502V3C13.7502 2.58579 13.4144 2.25 13.0002 2.25C12.586 2.25 12.2502 2.58579 12.2502 3V4.55713H7.75018V3C7.75018 2.58579 7.4144 2.25 7.00018 2.25C6.58597 2.25 6.25018 2.58579 6.25018 3ZM4.0002 6.85713C4.0002 6.30485 4.44791 5.85713 5.0002 5.85713H15.0002C15.5525 5.85713 16.0002 6.30484 16.0002 6.85713V15.1428C16.0002 15.6951 15.5525 16.1428 15.0002 16.1428H5.0002C4.44791 16.1428 4.0002 15.6951 4.0002 15.1428V8.99995H16.0002V7.69995H4.0002V6.85713Z" fill="#A1A1A3"/>
</svg>
