<svg width="24" height="24" viewBox="0 0 24 24" fill="none" xmlns="http://www.w3.org/2000/svg">
<g clip-path="url(#clip0_322_14101)">
<path d="M6.11334 16.9441C7.0966 18.6472 8.63995 19.9566 10.4804 20.6493C12.3209 21.342 14.3446 21.3751 16.2068 20.743C18.0689 20.1109 19.6543 18.8527 20.6928 17.1827C21.7312 15.5127 22.1585 13.5343 21.9018 11.5846C21.6452 9.63494 20.7204 7.83456 19.2851 6.49026C17.8498 5.14597 15.9928 4.34092 14.0305 4.21231C12.0682 4.08369 10.122 4.63946 8.52349 5.78491C6.92502 6.93036 5.77316 8.59463 5.26419 10.4941" stroke="#6F6F6F" stroke-width="2" stroke-linecap="round" stroke-linejoin="round"/>
<path d="M2.49993 8.50085L4.49996 12.0009L8.49988 10.5" stroke="#6F6F6F" stroke-width="2" stroke-linecap="round" stroke-linejoin="round"/>
<path d="M13 8.5V13L16 16" stroke="#6F6F6F" stroke-width="2" stroke-linecap="round" stroke-linejoin="round"/>
</g>
<defs>
<clipPath id="clip0_322_14101">
<rect width="24" height="24" fill="white"/>
</clipPath>
</defs>
</svg>
