<svg width="24" height="24" viewBox="0 0 24 24" fill="none" xmlns="http://www.w3.org/2000/svg">
<path d="M12.779 9.70555L12 10.5161V5H15V10.5161L14.221 9.70555L13.5 8.95521L12.779 9.70555Z" fill="#6F6F6F" stroke="#6F6F6F" stroke-width="2"/>
<mask id="path-2-inside-1_322_14312" fill="white">
<path fill-rule="evenodd" clip-rule="evenodd" d="M7 5V19H18V5H7ZM6 3C5.44772 3 5 3.44772 5 4V20C5 20.5523 5.44772 21 6 21H18C19.1046 21 20 20.1046 20 19V5C20 3.89543 19.1046 3 18 3H6Z"/>
</mask>
<path fill-rule="evenodd" clip-rule="evenodd" d="M7 5V19H18V5H7ZM6 3C5.44772 3 5 3.44772 5 4V20C5 20.5523 5.44772 21 6 21H18C19.1046 21 20 20.1046 20 19V5C20 3.89543 19.1046 3 18 3H6Z" fill="#6F6F6F"/>
<path d="M7 19H5V21H7V19ZM7 5V3H5V5H7ZM18 19V21H20V19H18ZM18 5H20V3H18V5ZM9 19V5H5V19H9ZM18 17H7V21H18V17ZM16 5V19H20V5H16ZM7 7H18V3H7V7ZM7 4C7 4.55228 6.55229 5 6 5V1C4.34314 1 3 2.34315 3 4H7ZM7 20V4H3V20H7ZM6 19C6.55229 19 7 19.4477 7 20H3C3 21.6569 4.34314 23 6 23V19ZM18 19H6V23H18V19ZM18 19V23C20.2091 23 22 21.2091 22 19H18ZM18 5V19H22V5H18ZM18 5H22C22 2.79086 20.2091 1 18 1V5ZM6 5H18V1H6V5Z" fill="#6F6F6F" mask="url(#path-2-inside-1_322_14312)"/>
</svg>
