<svg width="24" height="24" viewBox="0 0 24 24" fill="none" xmlns="http://www.w3.org/2000/svg">
<mask id="path-1-outside-1_322_14021" maskUnits="userSpaceOnUse" x="1" y="2" width="21" height="20" fill="black">
<rect fill="white" x="1" y="2" width="21" height="20"/>
<path fill-rule="evenodd" clip-rule="evenodd" d="M9.40425 4C5.86728 4 3 6.86728 3 10.4042C3 12.8172 4.33448 14.9185 6.30566 16.0103V19.5713C6.30566 19.8023 6.57936 19.924 6.75091 19.7693L10.0342 16.8085H13.5957C17.1327 16.8085 20 13.9412 20 10.4042C20 6.86728 17.1327 4 13.5957 4H9.40425Z"/>
</mask>
<path d="M6.30566 16.0103H8.30566V14.8318L7.27473 14.2608L6.30566 16.0103ZM6.75091 19.7693L5.41151 18.284L5.41151 18.284L6.75091 19.7693ZM10.0342 16.8085V14.8085H9.26557L8.69478 15.3232L10.0342 16.8085ZM5 10.4042C5 7.97185 6.97185 6 9.40425 6V2C4.76271 2 1 5.76271 1 10.4042H5ZM7.27473 14.2608C5.91397 13.5071 5 12.061 5 10.4042H1C1 13.5734 2.75499 16.3299 5.33659 17.7599L7.27473 14.2608ZM8.30566 19.5713V16.0103H4.30566V19.5713H8.30566ZM5.41151 18.284C6.52657 17.2785 8.30566 18.0698 8.30566 19.5713H4.30566C4.30566 21.5347 6.63216 22.5695 8.09031 21.2546L5.41151 18.284ZM8.69478 15.3232L5.41151 18.284L8.0903 21.2546L11.3736 18.2938L8.69478 15.3232ZM13.5957 14.8085H10.0342V18.8085H13.5957V14.8085ZM18 10.4042C18 12.8366 16.0281 14.8085 13.5957 14.8085V18.8085C18.2373 18.8085 22 15.0458 22 10.4042H18ZM13.5957 6C16.0281 6 18 7.97185 18 10.4042H22C22 5.76271 18.2373 2 13.5957 2V6ZM9.40425 6H13.5957V2H9.40425V6Z" fill="#6F6F6F" mask="url(#path-1-outside-1_322_14021)"/>
<path d="M9 10.5C9 11.3285 8.32843 12.0001 7.5 12.0001C6.67157 12.0001 6 11.3285 6 10.5C6 9.67159 6.67157 9 7.5 9C8.32843 9 9 9.67159 9 10.5Z" fill="#6F6F6F"/>
<path d="M13 10.5C13 11.3285 12.3284 12.0001 11.5 12.0001C10.6716 12.0001 10 11.3285 10 10.5C10 9.67159 10.6716 9 11.5 9C12.3284 9 13 9.67159 13 10.5Z" fill="#6F6F6F"/>
<path d="M17 10.5C17 11.3285 16.3284 12.0001 15.5 12.0001C14.6716 12.0001 14 11.3285 14 10.5C14 9.67159 14.6716 9 15.5 9C16.3284 9 17 9.67159 17 10.5Z" fill="#6F6F6F"/>
</svg>
