<svg width="24" height="24" viewBox="0 0 24 24" fill="none" xmlns="http://www.w3.org/2000/svg">
<path d="M13.92 9.05982C13.4667 9.05982 13.1 8.93982 12.82 8.69983C12.54 8.44649 12.4 8.12649 12.4 7.73982C12.4 7.20649 12.6067 6.75316 13.02 6.37982C13.4334 6.00649 13.9267 5.81982 14.5 5.81982C14.94 5.81982 15.3 5.94649 15.58 6.19982C15.86 6.43982 16 6.75316 16 7.13983C16 7.67316 15.7934 8.12649 15.38 8.49982C14.98 8.87316 14.4934 9.05982 13.92 9.05982ZM12.0021 10.3327C12.0728 10.133 12.2616 9.99951 12.4734 9.99951H14.4326C14.7778 9.99951 15.0191 10.341 14.904 10.6664L11.718 19.6664C11.6473 19.866 11.4584 19.9995 11.2466 19.9995H9.28742C8.94225 19.9995 8.7009 19.658 8.81608 19.3327L12.0021 10.3327Z" fill="#6F6F6F"/>
</svg>
