<svg width="24" height="24" viewBox="0 0 24 24" fill="none" xmlns="http://www.w3.org/2000/svg">
<path fill-rule="evenodd" clip-rule="evenodd" d="M8.01199 3C6.42822 3 5 4.21907 5 5.89704V14.5601C5 17.0126 6.94219 18.9984 9.33696 18.9984H11.5941L11.5941 21.6488C11.5941 21.95 11.9406 22.1109 12.162 21.9126L15.4154 18.9984H16.375C17.8247 18.9984 19 17.7953 19 16.3112V7.85941C19 7.34321 18.5912 6.92474 18.087 6.92474H8.01199C7.27733 6.92474 6.82609 6.38664 6.82609 5.89704C6.82609 5.40744 7.27733 4.86935 8.01199 4.86935H18.087C18.5912 4.86935 19 4.45088 19 3.93467C19 3.41847 18.5912 3 18.087 3H8.01199ZM6.82609 8.55837C7.19569 8.71101 7.59854 8.79409 8.01199 8.79409H17.1739V16.3112C17.1739 16.7629 16.8162 17.1291 16.375 17.1291H9.33696C7.94977 17.1291 6.82609 15.9792 6.82609 14.5601V8.55837Z" fill="#6F6F6F"/>
<path d="M8.14513 14.2163C8.14513 13.8148 8.46307 13.4893 8.85527 13.4893H10.8843C11.2765 13.4893 11.5944 13.8148 11.5944 14.2163C11.5944 14.6178 11.2765 14.9432 10.8843 14.9432H8.85527C8.46307 14.9432 8.14513 14.6178 8.14513 14.2163Z" fill="#6F6F6F"/>
<path d="M8.14513 11.5165C8.14513 11.115 8.46307 10.7896 8.85527 10.7896H12.7103C13.1025 10.7896 13.4205 11.115 13.4205 11.5165C13.4205 11.918 13.1025 12.2435 12.7103 12.2435H8.85527C8.46307 12.2435 8.14513 11.918 8.14513 11.5165Z" fill="#6F6F6F"/>
</svg>
