<svg width="24" height="24" viewBox="0 0 24 24" fill="none" xmlns="http://www.w3.org/2000/svg">
<path d="M14 8H10V8.5C10 9.12951 10.2964 9.72229 10.8 10.1C11.5111 10.6333 12.4889 10.6333 13.2 10.1C13.7036 9.72229 14 9.12951 14 8.5V8Z" fill="#6F6F6F"/>
<path d="M7 4H17" stroke="#6F6F6F" stroke-width="2" stroke-linecap="round"/>
<path d="M8 4V8C8 9.25903 8.59278 10.4446 9.6 11.2V11.2C11.0222 12.2667 12.9778 12.2667 14.4 11.2V11.2C15.4072 10.4446 16 9.25903 16 8V4" stroke="#6F6F6F" stroke-width="2" stroke-linecap="round"/>
<path d="M7 20H17" stroke="#6F6F6F" stroke-width="2" stroke-linecap="round"/>
<path d="M8 20V16C8 14.741 8.59278 13.5554 9.6 12.8V12.8C11.0222 11.7333 12.9778 11.7333 14.4 12.8V12.8C15.4072 13.5554 16 14.741 16 16V20" stroke="#6F6F6F" stroke-width="2" stroke-linecap="round"/>
</svg>
