<svg width="24" height="24" viewBox="0 0 24 24" fill="none" xmlns="http://www.w3.org/2000/svg">
<rect x="5" y="6" width="14" height="13" rx="1" stroke="#6F6F6F" stroke-width="2"/>
<rect x="4.5" y="8.5" width="15" height="1" fill="#6F6F6F" stroke="#6F6F6F"/>
<rect x="8" y="3" width="2" height="3" rx="1" fill="#6F6F6F"/>
<rect x="14" y="3" width="2" height="3" rx="1" fill="#6F6F6F"/>
<path d="M7.0763 12.874C7.1083 12.662 7.1683 12.476 7.2563 12.316C7.3443 12.156 7.4543 12.023 7.5863 11.917C7.7183 11.811 7.8683 11.732 8.0363 11.68C8.2063 11.626 8.3893 11.599 8.5853 11.599C8.7933 11.599 8.9793 11.629 9.1433 11.689C9.3093 11.747 9.4493 11.827 9.5633 11.929C9.6773 12.031 9.7643 12.15 9.8243 12.286C9.8863 12.422 9.9173 12.568 9.9173 12.724C9.9173 12.862 9.9023 12.984 9.8723 13.09C9.8443 13.194 9.8013 13.285 9.7433 13.363C9.6873 13.441 9.6173 13.507 9.5333 13.561C9.4513 13.615 9.3563 13.66 9.2483 13.696C9.7483 13.86 9.9983 14.193 9.9983 14.695C9.9983 14.917 9.9573 15.113 9.8753 15.283C9.7933 15.451 9.6833 15.592 9.5453 15.706C9.4073 15.82 9.2463 15.906 9.0623 15.964C8.8803 16.02 8.6893 16.048 8.4893 16.048C8.2773 16.048 8.0903 16.024 7.9283 15.976C7.7663 15.928 7.6233 15.856 7.4993 15.76C7.3773 15.664 7.2723 15.544 7.1843 15.4C7.0963 15.254 7.0193 15.084 6.9533 14.89L7.3193 14.74C7.4153 14.7 7.5043 14.689 7.5863 14.707C7.6703 14.725 7.7303 14.769 7.7663 14.839C7.8063 14.915 7.8483 14.985 7.8923 15.049C7.9383 15.113 7.9893 15.169 8.0453 15.217C8.1013 15.263 8.1643 15.299 8.2343 15.325C8.3063 15.351 8.3883 15.364 8.4803 15.364C8.5963 15.364 8.6973 15.345 8.7833 15.307C8.8693 15.269 8.9413 15.22 8.9993 15.16C9.0573 15.098 9.1003 15.029 9.1283 14.953C9.1583 14.875 9.1733 14.798 9.1733 14.722C9.1733 14.622 9.1643 14.532 9.1463 14.452C9.1283 14.37 9.0863 14.301 9.0203 14.245C8.9563 14.187 8.8603 14.143 8.7323 14.113C8.6063 14.081 8.4343 14.065 8.2163 14.065V13.483C8.3983 13.483 8.5473 13.468 8.6633 13.438C8.7793 13.408 8.8703 13.366 8.9363 13.312C9.0023 13.258 9.0473 13.193 9.0713 13.117C9.0973 13.041 9.1103 12.958 9.1103 12.868C9.1103 12.678 9.0603 12.533 8.9603 12.433C8.8623 12.333 8.7223 12.283 8.5403 12.283C8.4603 12.283 8.3863 12.295 8.3183 12.319C8.2523 12.341 8.1923 12.372 8.1383 12.412C8.0863 12.452 8.0413 12.499 8.0033 12.553C7.9653 12.607 7.9373 12.666 7.9193 12.73C7.8813 12.83 7.8323 12.897 7.7723 12.931C7.7123 12.963 7.6253 12.97 7.5113 12.952L7.0763 12.874ZM11.8858 13.21L11.7538 13.369C11.8298 13.335 11.9118 13.309 11.9998 13.291C12.0878 13.273 12.1828 13.264 12.2848 13.264C12.4468 13.264 12.6048 13.291 12.7588 13.345C12.9128 13.399 13.0498 13.48 13.1698 13.588C13.2898 13.696 13.3858 13.832 13.4578 13.996C13.5318 14.158 13.5688 14.349 13.5688 14.569C13.5688 14.771 13.5308 14.962 13.4548 15.142C13.3808 15.322 13.2748 15.479 13.1368 15.613C13.0008 15.747 12.8368 15.853 12.6448 15.931C12.4548 16.009 12.2428 16.048 12.0088 16.048C11.7708 16.048 11.5578 16.011 11.3698 15.937C11.1818 15.861 11.0218 15.755 10.8898 15.619C10.7578 15.483 10.6568 15.321 10.5868 15.133C10.5168 14.943 10.4818 14.734 10.4818 14.506C10.4818 14.296 10.5228 14.083 10.6048 13.867C10.6888 13.651 10.8158 13.429 10.9858 13.201L11.9968 11.839C12.0368 11.787 12.0958 11.742 12.1738 11.704C12.2518 11.666 12.3408 11.647 12.4408 11.647H13.1758L11.8858 13.21ZM11.9938 15.382C12.1018 15.382 12.2018 15.363 12.2938 15.325C12.3858 15.287 12.4648 15.234 12.5308 15.166C12.5968 15.098 12.6488 15.019 12.6868 14.929C12.7248 14.837 12.7438 14.737 12.7438 14.629C12.7438 14.511 12.7258 14.405 12.6898 14.311C12.6538 14.217 12.6028 14.138 12.5368 14.074C12.4708 14.008 12.3918 13.958 12.2998 13.924C12.2078 13.89 12.1058 13.873 11.9938 13.873C11.8878 13.873 11.7908 13.892 11.7028 13.93C11.6148 13.966 11.5388 14.018 11.4748 14.086C11.4128 14.152 11.3638 14.231 11.3278 14.323C11.2938 14.415 11.2768 14.516 11.2768 14.626C11.2768 14.74 11.2918 14.844 11.3218 14.938C11.3518 15.03 11.3968 15.109 11.4568 15.175C11.5168 15.241 11.5908 15.292 11.6788 15.328C11.7688 15.364 11.8738 15.382 11.9938 15.382ZM15.0092 13.207C15.0992 13.189 15.1852 13.176 15.2672 13.168C15.3512 13.16 15.4322 13.156 15.5102 13.156C15.7382 13.156 15.9392 13.191 16.1132 13.261C16.2892 13.329 16.4362 13.423 16.5542 13.543C16.6742 13.663 16.7642 13.804 16.8242 13.966C16.8842 14.128 16.9142 14.302 16.9142 14.488C16.9142 14.72 16.8732 14.932 16.7912 15.124C16.7092 15.314 16.5952 15.478 16.4492 15.616C16.3052 15.752 16.1322 15.858 15.9302 15.934C15.7302 16.01 15.5112 16.048 15.2732 16.048C15.1352 16.048 15.0032 16.033 14.8772 16.003C14.7512 15.975 14.6332 15.937 14.5232 15.889C14.4152 15.839 14.3142 15.782 14.2202 15.718C14.1262 15.654 14.0422 15.587 13.9682 15.517L14.2232 15.169C14.2772 15.095 14.3472 15.058 14.4332 15.058C14.4872 15.058 14.5402 15.074 14.5922 15.106C14.6442 15.138 14.7032 15.174 14.7692 15.214C14.8352 15.252 14.9122 15.287 15.0002 15.319C15.0882 15.351 15.1952 15.367 15.3212 15.367C15.4512 15.367 15.5642 15.346 15.6602 15.304C15.7562 15.26 15.8352 15.201 15.8972 15.127C15.9612 15.051 16.0082 14.962 16.0382 14.86C16.0702 14.756 16.0862 14.645 16.0862 14.527C16.0862 14.301 16.0212 14.127 15.8912 14.005C15.7632 13.881 15.5762 13.819 15.3302 13.819C15.1282 13.819 14.9252 13.857 14.7212 13.933L14.2082 13.789L14.5742 11.647H16.7582V11.995C16.7582 12.053 16.7492 12.106 16.7312 12.154C16.7152 12.2 16.6872 12.241 16.6472 12.277C16.6092 12.311 16.5592 12.338 16.4972 12.358C16.4372 12.376 16.3632 12.385 16.2752 12.385H15.1502L15.0092 13.207Z" fill="#6F6F6F"/>
</svg>
