<svg width="24" height="24" viewBox="0 0 24 24" fill="none" xmlns="http://www.w3.org/2000/svg">
<path fill-rule="evenodd" clip-rule="evenodd" d="M4.99983 8C4.99983 7.44772 5.44755 7 5.99983 7H18.4998C19.0521 7 19.4998 7.44772 19.4998 8C19.4998 8.55228 19.0521 9 18.4998 9H5.99983C5.44755 9 4.99983 8.55228 4.99983 8ZM10.9998 13C10.9998 12.4477 11.4475 12 11.9998 12H18.2498C18.8021 12 19.2498 12.4477 19.2498 13C19.2498 13.5523 18.8021 14 18.2498 14H11.9998C11.4475 14 10.9998 13.5523 10.9998 13ZM5.99983 17C5.44755 17 4.99983 17.4477 4.99983 18C4.99983 18.5523 5.44755 19 5.99983 19H18.4998C19.0521 19 19.4998 18.5523 19.4998 18C19.4998 17.4477 19.0521 17 18.4998 17H5.99983Z" fill="#6F6F6F"/>
</svg>
