<svg width="24" height="24" viewBox="0 0 24 24" fill="none" xmlns="http://www.w3.org/2000/svg">
<rect x="5" y="6" width="14" height="13" rx="1" stroke="#6F6F6F" stroke-width="2"/>
<rect x="4.5" y="8.5" width="15" height="1" fill="#6F6F6F" stroke="#6F6F6F"/>
<rect x="8" y="3" width="2" height="3" rx="1" fill="#6F6F6F"/>
<rect x="14" y="3" width="2" height="3" rx="1" fill="#6F6F6F"/>
<path d="M9.51279 14.347L9.04179 13.015C9.01379 12.945 8.98379 12.863 8.95179 12.769C8.92179 12.675 8.89279 12.573 8.86479 12.463C8.83679 12.575 8.80679 12.679 8.77479 12.775C8.74479 12.869 8.71579 12.951 8.68779 13.021L8.21979 14.347H9.51279ZM11.0248 16H10.3258C10.2478 16 10.1838 15.982 10.1338 15.946C10.0858 15.908 10.0498 15.86 10.0258 15.802L9.73179 14.971H7.99779L7.70379 15.802C7.68379 15.852 7.64879 15.898 7.59879 15.94C7.54879 15.98 7.48579 16 7.40979 16H6.70479L8.40579 11.647H9.32679L11.0248 16ZM14.0107 15.268V16H11.4277V11.647H12.3277V15.268H14.0107ZM17.1454 15.268V16H14.5624V11.647H15.4624V15.268H17.1454Z" fill="#6F6F6F"/>
</svg>
