<svg width="24" height="24" viewBox="0 0 24 24" fill="none" xmlns="http://www.w3.org/2000/svg">
<path d="M18.5051 9.71327C18.9873 9.67618 19.3439 9.24857 19.2938 8.76752L18.992 5.87049C18.9257 5.23372 18.389 4.75 17.7488 4.75H7.34293C6.70024 4.75 6.16229 5.23734 6.099 5.8769L5.81144 8.78277C5.76459 9.25625 6.11582 9.67585 6.59016 9.71306C7.03843 9.74821 7.43642 9.42787 7.49786 8.98244L7.76157 7.07052C7.81276 6.69942 8.12992 6.423 8.50454 6.423H10.888C11.3022 6.423 11.638 6.75879 11.638 7.173V17.777C11.638 18.1912 11.3022 18.527 10.888 18.527H9.8295C9.36751 18.527 8.993 18.9015 8.993 19.3635C8.993 19.8255 9.36751 20.2 9.8295 20.2H15.3035C15.7655 20.2 16.14 19.8255 16.14 19.3635C16.14 18.9015 15.7655 18.527 15.3035 18.527H14.199C13.7848 18.527 13.449 18.1912 13.449 17.777V7.173C13.449 6.75879 13.7848 6.423 14.199 6.423H16.5825C16.9571 6.423 17.2742 6.69942 17.3254 7.07052L17.588 8.97395C17.6501 9.42414 18.052 9.74813 18.5051 9.71327Z" fill="#6F6F6F" stroke="#6F6F6F" stroke-width="0.5"/>
</svg>
