<svg width="24" height="24" viewBox="0 0 24 24" fill="none" xmlns="http://www.w3.org/2000/svg">
<path d="M10.5 3L13.7764 9.55279C14.1088 10.2177 13.6253 11 12.882 11H11V12.5C11 13.0523 10.5523 13.5 10 13.5H7.5V13.5C6.60883 15.0595 7.73492 17 9.53113 17H10L9.68377 17.9487C9.27543 19.1737 8.12901 20 6.83772 20H4" stroke="#6F6F6F" stroke-width="1.4" stroke-linecap="round" stroke-linejoin="round"/>
<circle cx="7.5" cy="5.5" r="0.5" fill="#6F6F6F" stroke="#6F6F6F"/>
<path d="M14.4976 13.3753C14.732 13.6098 14.918 13.8881 15.0449 14.1944C15.1718 14.5008 15.2371 14.8291 15.2371 15.1607C15.2371 15.4923 15.1718 15.8206 15.0449 16.1269C14.918 16.4333 14.732 16.7116 14.4976 16.9461M15.9118 11.9611C16.3319 12.3813 16.6653 12.8801 16.8927 13.4291C17.12 13.9781 17.2371 14.5665 17.2371 15.1607C17.2371 15.7549 17.12 16.3433 16.8927 16.8923C16.6653 17.4413 16.3319 17.9401 15.9118 18.3603M17.326 10.5469C17.9319 11.1528 18.4125 11.8721 18.7404 12.6637C19.0683 13.4553 19.2371 14.3038 19.2371 15.1607C19.2371 16.0176 19.0683 16.866 18.7404 17.6577C18.4125 18.4493 17.9319 19.1686 17.326 19.7745" stroke="#6F6F6F" stroke-linecap="round" stroke-linejoin="round"/>
</svg>
