<svg width="24" height="24" viewBox="0 0 24 24" fill="none" xmlns="http://www.w3.org/2000/svg">
<path fill-rule="evenodd" clip-rule="evenodd" d="M6.10508 11.8031C6.66017 8.4798 8.90318 6.2002 11.9998 6.2002C15.0965 6.2002 17.3395 8.4798 17.8946 11.8031C17.9531 12.1533 18.187 12.4304 18.4914 12.5595C18.5127 12.8297 18.5236 13.1047 18.5236 13.3837C18.5236 13.6872 18.5086 13.9863 18.4796 14.2803C18.0579 14.047 17.5729 13.9141 17.0569 13.9141H15.5533C15.3078 13.9141 15.1087 14.1132 15.1087 14.3588V19.3557C15.1087 19.6013 15.3078 19.8004 15.5533 19.8004H17.0569C18.6823 19.8004 20 18.4827 20 16.8573C20 16.1786 19.7703 15.5536 19.3843 15.0557C19.4758 14.5143 19.5236 13.9552 19.5236 13.3837C19.5236 13.0643 19.5102 12.7481 19.4839 12.4363C19.771 12.219 19.9307 11.8534 19.8672 11.4736C19.1926 7.43468 16.3059 4.2002 11.9998 4.2002C7.69371 4.2002 4.80703 7.43468 4.13241 11.4736C4.06891 11.8537 4.22884 12.2195 4.51639 12.4368C4.49005 12.7484 4.4767 13.0644 4.4767 13.3837C4.4767 13.9551 4.5245 14.5141 4.61589 15.0554C4.22982 15.5533 4 16.1784 4 16.8573C4 18.4827 5.31768 19.8004 6.94313 19.8004H8.27991C8.61759 19.8004 8.89133 19.5267 8.89133 19.189V14.5256C8.89133 14.1879 8.61759 13.9141 8.27991 13.9141H6.94313C6.4272 13.9141 5.94228 14.0469 5.52065 14.2801C5.49163 13.9862 5.4767 13.6871 5.4767 13.3837C5.4767 13.1046 5.48755 12.8295 5.50888 12.5592C5.81296 12.43 6.04661 12.1531 6.10508 11.8031Z" fill="#6F6F6F"/>
</svg>
