<svg width="24" height="24" viewBox="0 0 24 24" fill="none" xmlns="http://www.w3.org/2000/svg">
<path d="M7.39583 20C7.02083 20 6.69444 19.88 6.41667 19.64C6.13889 19.4 6 19.1133 6 18.78V7.22C6 6.88667 6.13194 6.6 6.39583 6.36C6.67361 6.12 7.00694 6 7.39583 6H13C14.3333 6 15.3958 6.36 16.1875 7.08C16.9931 7.78667 17.3958 8.74 17.3958 9.94C17.3958 10.5133 17.2361 11.06 16.9167 11.58C16.5972 12.0867 16.1736 12.48 15.6458 12.76V12.82C16.3681 13.06 16.9375 13.4533 17.3542 14C17.7847 14.5467 18 15.1733 18 15.88C18 16.68 17.8056 17.3933 17.4167 18.02C17.0278 18.6467 16.4861 19.1333 15.7917 19.48C15.0972 19.8267 14.3056 20 13.4167 20H7.39583ZM12.9583 11.88C13.4167 11.88 13.8056 11.7 14.125 11.34C14.4583 10.98 14.625 10.5467 14.625 10.04C14.625 9.49333 14.4722 9.06 14.1667 8.74C13.875 8.42 13.4722 8.26 12.9583 8.26H8.70833V11.88H12.9583ZM13.375 17.74C13.9444 17.74 14.3958 17.58 14.7292 17.26C15.0625 16.9267 15.2292 16.4733 15.2292 15.9C15.2292 15.34 15.0625 14.9067 14.7292 14.6C14.4097 14.28 13.9583 14.12 13.375 14.12H8.70833V17.74H13.375Z" fill="#6F6F6F"/>
</svg>
