<svg width="24" height="24" viewBox="0 0 24 24" fill="none" xmlns="http://www.w3.org/2000/svg">
<mask id="path-1-outside-1_322_14263" maskUnits="userSpaceOnUse" x="2" y="3" width="20" height="16" fill="black">
<rect fill="white" x="2" y="3" width="20" height="16"/>
<path d="M6.4783 10.7081C6.4783 10.4486 6.52066 10.1459 6.60539 9.8C6.69012 9.41081 6.88076 8.97838 7.1773 8.5027C7.51622 7.98378 7.83395 7.57297 8.1305 7.27027C8.42705 6.92432 8.8295 6.55676 9.33787 6.16756C9.50733 6.03784 9.63442 5.90811 9.71915 5.77838C9.84624 5.6054 9.84624 5.43243 9.71915 5.25946L9.6556 5.19459C9.48615 5.06486 9.29551 5 9.08369 5C8.87187 5 8.70241 5.04324 8.57532 5.12973C8.3635 5.25946 8.1305 5.41081 7.87631 5.58378C7.62213 5.71351 7.36794 5.88648 7.11376 6.1027C6.81721 6.31892 6.52066 6.57838 6.22411 6.88108C5.96993 7.14054 5.73693 7.44324 5.52511 7.78919C5.01674 8.56756 4.63546 9.36756 4.38128 10.1892C4.12709 11.0108 4 11.8108 4 12.5892C4 13.7568 4.29655 14.7946 4.88965 15.7027C5.52511 16.5676 6.45712 17 7.68567 17C8.44823 17 9.12605 16.7189 9.71915 16.1568C10.3546 15.5946 10.6723 14.8811 10.6723 14.0162C10.6723 13.2378 10.397 12.5243 9.84624 11.8757C9.29551 11.1838 8.63887 10.8378 7.87631 10.8378C7.83395 10.8378 7.68567 10.8811 7.43149 10.9676C7.21967 11.0108 7.05021 11.0324 6.92312 11.0324C6.7113 11.0757 6.58421 11.0757 6.54184 11.0324C6.49948 10.9459 6.4783 10.8378 6.4783 10.7081ZM15.806 10.7081C15.806 10.4486 15.8483 10.1459 15.9331 9.8C16.0178 9.41081 16.2084 8.97838 16.505 8.5027C16.8439 7.98378 17.1616 7.57297 17.4582 7.27027C17.7547 6.92432 18.1572 6.55676 18.6655 6.16756C18.835 6.03784 18.9621 5.90811 19.0468 5.77838C19.1739 5.6054 19.1739 5.43243 19.0468 5.25946L18.9833 5.19459C18.8138 5.06486 18.6232 5 18.4113 5C18.1995 5 18.0301 5.04324 17.903 5.12973C17.6912 5.25946 17.4582 5.41081 17.204 5.58378C16.9498 5.71351 16.6956 5.88648 16.4414 6.1027C16.1449 6.31892 15.8483 6.57838 15.5518 6.88108C15.2976 7.14054 15.0646 7.44324 14.8528 7.78919C14.3444 8.56756 13.9631 9.36756 13.7089 10.1892C13.4548 11.0108 13.3277 11.8108 13.3277 12.5892C13.3277 13.7568 13.6242 14.7946 14.2173 15.7027C14.8528 16.5676 15.7848 17 17.0133 17C17.7759 17 18.4537 16.7189 19.0468 16.1568C19.6823 15.5946 20 14.8811 20 14.0162C20 13.2378 19.7246 12.5243 19.1739 11.8757C18.6232 11.1838 17.9665 10.8378 17.204 10.8378C17.1616 10.8378 17.0133 10.8811 16.7592 10.9676C16.5473 11.0108 16.3779 11.0324 16.2508 11.0324C16.039 11.0757 15.9119 11.0757 15.8695 11.0324C15.8271 10.9459 15.806 10.8378 15.806 10.7081Z"/>
</mask>
<path d="M6.60539 9.8L8.54798 10.2758L8.55412 10.2507L8.55962 10.2254L6.60539 9.8ZM7.1773 8.5027L5.50281 7.40906L5.49127 7.42672L5.48011 7.44463L7.1773 8.5027ZM8.1305 7.27027L9.55916 8.66988L9.60569 8.62239L9.64896 8.57192L8.1305 7.27027ZM9.33787 6.16756L8.12212 4.5795L8.12211 4.57951L9.33787 6.16756ZM9.71915 5.77838L8.10743 4.59416L8.07479 4.63859L8.04464 4.68475L9.71915 5.77838ZM9.71915 5.25946L11.3309 4.07526L11.247 3.96106L11.1478 3.85983L9.71915 5.25946ZM9.6556 5.19459L11.0843 3.79497L10.9845 3.69316L10.8714 3.60653L9.6556 5.19459ZM8.57532 5.12973L9.61987 6.83528L9.66082 6.8102L9.70052 6.78319L8.57532 5.12973ZM7.87631 5.58378L8.78549 7.36519L8.89752 7.30801L9.00151 7.23724L7.87631 5.58378ZM7.11376 6.1027L8.29204 7.71876L8.35256 7.67464L8.40961 7.62611L7.11376 6.1027ZM6.22411 6.88108L4.79545 5.48147L4.79545 5.48147L6.22411 6.88108ZM5.52511 7.78919L7.19961 8.88283L7.21555 8.85842L7.23077 8.83355L5.52511 7.78919ZM4.38128 10.1892L6.29193 10.7803L6.29193 10.7803L4.38128 10.1892ZM4.88965 15.7027L3.21514 16.7963L3.24529 16.8425L3.27793 16.8869L4.88965 15.7027ZM9.71915 16.1568L8.39397 14.6588L8.36824 14.6816L8.3433 14.7052L9.71915 16.1568ZM9.84624 11.8757L8.28144 13.1212L8.30116 13.146L8.32164 13.1701L9.84624 11.8757ZM7.43149 10.9676L7.83155 12.9271L7.95572 12.9018L8.07571 12.861L7.43149 10.9676ZM6.92312 11.0324V9.03243H6.72107L6.5231 9.07284L6.92312 11.0324ZM6.54184 11.0324L4.74574 11.9122L4.88758 12.2018L5.11324 12.4321L6.54184 11.0324ZM15.9331 9.8L17.8756 10.2758L17.8818 10.2507L17.8873 10.2254L15.9331 9.8ZM16.505 8.5027L14.8305 7.40906L14.8189 7.42672L14.8078 7.44463L16.505 8.5027ZM17.4582 7.27027L18.8868 8.66988L18.9333 8.62239L18.9766 8.57191L17.4582 7.27027ZM18.6655 6.16756L17.4498 4.5795L17.4498 4.57951L18.6655 6.16756ZM19.0468 5.77838L17.4351 4.59417L17.4024 4.63859L17.3723 4.68474L19.0468 5.77838ZM19.0468 5.25946L20.6585 4.07527L20.5746 3.96107L20.4755 3.85984L19.0468 5.25946ZM18.9833 5.19459L20.4119 3.79498L20.3122 3.69317L20.199 3.60653L18.9833 5.19459ZM17.903 5.12973L18.9475 6.83528L18.9885 6.8102L19.0282 6.78319L17.903 5.12973ZM17.204 5.58378L18.1131 7.36519L18.2252 7.30801L18.3292 7.23724L17.204 5.58378ZM16.4414 6.1027L17.6197 7.71876L17.6802 7.67463L17.7373 7.62611L16.4414 6.1027ZM15.5518 6.88108L16.9804 8.2807L16.9804 8.28069L15.5518 6.88108ZM14.8528 7.78919L16.5273 8.88283L16.5432 8.85842L16.5584 8.83355L14.8528 7.78919ZM13.7089 10.1892L15.6196 10.7803V10.7803L13.7089 10.1892ZM14.2173 15.7027L12.5428 16.7963L12.5729 16.8425L12.6056 16.8869L14.2173 15.7027ZM19.0468 16.1568L17.7216 14.6588L17.6959 14.6816L17.671 14.7052L19.0468 16.1568ZM19.1739 11.8757L17.6091 13.1212L17.6288 13.146L17.6493 13.1701L19.1739 11.8757ZM16.7592 10.9676L17.1592 12.9271L17.2834 12.9018L17.4034 12.861L16.7592 10.9676ZM16.2508 11.0324V9.03243H16.0487L15.8508 9.07284L16.2508 11.0324ZM15.8695 11.0324L14.0734 11.9122L14.2152 12.2018L14.4409 12.4321L15.8695 11.0324ZM8.4783 10.7081C8.4783 10.6559 8.48832 10.5193 8.54798 10.2758L4.66281 9.32422C4.553 9.77255 4.4783 10.2414 4.4783 10.7081H8.4783ZM8.55962 10.2254C8.58013 10.1312 8.65376 9.91486 8.8745 9.56078L5.48011 7.44463C5.10775 8.0419 4.80011 8.69038 4.65116 9.37456L8.55962 10.2254ZM8.8518 9.59634C9.14869 9.14178 9.38586 8.84678 9.55916 8.66988L6.70183 5.87066C6.28204 6.29916 5.88375 6.82579 5.50281 7.40906L8.8518 9.59634ZM9.64896 8.57192C9.82666 8.36461 10.1151 8.09131 10.5536 7.75562L8.12211 4.57951C7.54386 5.0222 7.02743 5.48404 6.61204 5.96862L9.64896 8.57192ZM10.5536 7.75563C10.84 7.53643 11.1481 7.24794 11.3937 6.87201L8.04464 4.68475C8.08499 4.62297 8.11861 4.58663 8.13163 4.57335C8.14479 4.55991 8.14417 4.56262 8.12212 4.5795L10.5536 7.75563ZM11.3309 6.96259C11.585 6.61674 11.8145 6.12497 11.8145 5.51892C11.8145 4.91287 11.585 4.4211 11.3309 4.07526L8.10742 6.44365C7.98041 6.27078 7.81447 5.95199 7.81447 5.51892C7.81447 5.08584 7.98041 4.76704 8.10743 4.59416L11.3309 6.96259ZM11.1478 3.85983L11.0843 3.79497L8.22695 6.59421L8.29049 6.65908L11.1478 3.85983ZM10.8714 3.60653C10.3558 3.21181 9.73858 3 9.08369 3V7C8.98192 7 8.86401 6.9838 8.74131 6.94205C8.61877 6.90036 8.5174 6.84202 8.43985 6.78266L10.8714 3.60653ZM9.08369 3C8.61779 3 8.01285 3.09333 7.45012 3.47627L9.70052 6.78319C9.39198 6.99315 9.12594 7 9.08369 7V3ZM7.53076 3.42418C7.28616 3.57399 7.02583 3.74337 6.75111 3.93033L9.00151 7.23724C9.23516 7.07824 9.44084 6.94493 9.61987 6.83528L7.53076 3.42418ZM6.96714 3.80238C6.55348 4.0135 6.17111 4.27885 5.81791 4.57929L8.40961 7.62611C8.56478 7.49412 8.69077 7.41353 8.78549 7.36519L6.96714 3.80238ZM5.93548 4.48664C5.53721 4.77702 5.15777 5.11162 4.79545 5.48147L7.65278 8.28069C7.88355 8.04513 8.09721 7.86081 8.29204 7.71876L5.93548 4.48664ZM4.79545 5.48147C4.42443 5.86019 4.10092 6.28511 3.81944 6.74482L7.23077 8.83355C7.37293 8.60137 7.51543 8.4209 7.65278 8.28069L4.79545 5.48147ZM3.85061 6.69555C3.24872 7.61711 2.78403 8.58503 2.47062 9.59809L6.29193 10.7803C6.48689 10.1501 6.78475 9.51802 7.19961 8.88283L3.85061 6.69555ZM2.47062 9.59809C2.16337 10.5913 2 11.5906 2 12.5892H6C6 12.031 6.09082 11.4304 6.29193 10.7803L2.47062 9.59809ZM2 12.5892C2 14.1141 2.39329 15.538 3.21514 16.7963L6.56415 14.6091C6.19981 14.0512 6 13.3994 6 12.5892H2ZM3.27793 16.8869C4.3486 18.3441 5.92615 19 7.68567 19V15C6.98808 15 6.70161 14.791 6.50136 14.5185L3.27793 16.8869ZM7.68567 19C8.99902 19 10.1596 18.4949 11.095 17.6083L8.3433 14.7052C8.09251 14.9429 7.89743 15 7.68567 15V19ZM11.0443 17.6547C12.1183 16.7046 12.6723 15.4413 12.6723 14.0162H8.67234C8.67234 14.3208 8.5909 14.4846 8.39397 14.6588L11.0443 17.6547ZM12.6723 14.0162C12.6723 12.7182 12.1978 11.5552 11.3708 10.5812L8.32164 13.1701C8.59619 13.4935 8.67234 13.7574 8.67234 14.0162H12.6723ZM11.411 10.6301C10.549 9.54709 9.34972 8.83784 7.87631 8.83784V12.8378C7.92801 12.8378 8.04205 12.8205 8.28144 13.1212L11.411 10.6301ZM7.87631 8.83784C7.62164 8.83784 7.41267 8.88859 7.38226 8.89549C7.30318 8.91343 7.22985 8.93379 7.17338 8.95026C7.05776 8.98397 6.92518 9.02724 6.78727 9.07416L8.07571 12.861C8.19198 12.8214 8.26063 12.7998 8.29329 12.7903C8.31095 12.7851 8.29852 12.7893 8.26711 12.7964C8.25117 12.8 8.21507 12.8079 8.16574 12.8156C8.14028 12.8196 8.10436 12.8247 8.06065 12.829C8.01873 12.833 7.95486 12.8378 7.87631 12.8378V8.83784ZM7.03143 9.00798C6.96209 9.02214 6.91698 9.02916 6.89238 9.0323C6.88068 9.03379 6.87719 9.03395 6.88094 9.03367C6.88439 9.03342 6.89906 9.03243 6.92312 9.03243V13.0324C7.24574 13.0324 7.56586 12.9814 7.83155 12.9271L7.03143 9.00798ZM6.5231 9.07284C6.47107 9.08347 6.53698 9.06486 6.66894 9.06486C6.73582 9.06486 6.88875 9.06903 7.084 9.11885C7.26882 9.16601 7.63526 9.29064 7.97045 9.63276L5.11324 12.4321C5.46961 12.7958 5.86783 12.9367 6.09501 12.9947C6.33263 13.0553 6.53851 13.0649 6.66894 13.0649C6.92798 13.0649 7.16335 13.0246 7.32314 12.992L6.5231 9.07284ZM8.33795 10.1527C8.46793 10.418 8.4783 10.6335 8.4783 10.7081H4.4783C4.4783 11.0421 4.53104 11.4739 4.74574 11.9122L8.33795 10.1527ZM17.806 10.7081C17.806 10.6559 17.816 10.5193 17.8756 10.2758L13.9905 9.32422C13.8807 9.77256 13.806 10.2414 13.806 10.7081H17.806ZM17.8873 10.2254C17.9078 10.1312 17.9814 9.91485 18.2022 9.56077L14.8078 7.44463C14.4354 8.0419 14.1278 8.69038 13.9788 9.37456L17.8873 10.2254ZM18.1795 9.59634C18.4763 9.14178 18.7135 8.84679 18.8868 8.66988L16.0295 5.87065C15.6097 6.29916 15.2114 6.82579 14.8305 7.40906L18.1795 9.59634ZM18.9766 8.57191C19.1543 8.3646 19.4428 8.09131 19.8813 7.75562L17.4498 4.57951C16.8715 5.0222 16.3551 5.48405 15.9397 5.96862L18.9766 8.57191ZM19.8813 7.75563C20.1676 7.53643 20.4758 7.24794 20.7213 6.87201L17.3723 4.68474C17.4127 4.62297 17.4463 4.58663 17.4593 4.57335C17.4725 4.55991 17.4718 4.56262 17.4498 4.5795L19.8813 7.75563ZM20.6585 6.96258C20.9126 6.61673 21.1421 6.12496 21.1421 5.51892C21.1421 4.91288 20.9126 4.42111 20.6585 4.07527L17.4351 6.44365C17.3081 6.27078 17.1421 5.95199 17.1421 5.51892C17.1421 5.08585 17.3081 4.76705 17.4351 4.59417L20.6585 6.96258ZM20.4755 3.85984L20.4119 3.79498L17.5546 6.59421L17.6181 6.65907L20.4755 3.85984ZM20.199 3.60653C19.6834 3.21181 19.0662 3 18.4113 3V7C18.3096 7 18.1917 6.9838 18.069 6.94205C17.9464 6.90036 17.8451 6.84202 17.7675 6.78265L20.199 3.60653ZM18.4113 3C17.9455 3 17.3405 3.09333 16.7778 3.47627L19.0282 6.78319C18.7196 6.99315 18.4536 7 18.4113 7V3ZM16.8584 3.42418C16.6138 3.57399 16.3535 3.74337 16.0788 3.93032L18.3292 7.23724C18.5628 7.07824 18.7685 6.94493 18.9475 6.83528L16.8584 3.42418ZM16.2948 3.80238C15.8811 4.0135 15.4988 4.27885 15.1456 4.57929L17.7373 7.62611C17.8924 7.49412 18.0184 7.41353 18.1131 7.36519L16.2948 3.80238ZM15.2631 4.48664C14.8649 4.77702 14.4854 5.11162 14.1231 5.48147L16.9804 8.28069C17.2112 8.04513 17.4249 7.86081 17.6197 7.71876L15.2631 4.48664ZM14.1231 5.48146C13.7521 5.86018 13.4286 6.2851 13.1471 6.74483L16.5584 8.83355C16.7006 8.60138 16.8431 8.4209 16.9804 8.2807L14.1231 5.48146ZM13.1783 6.69555C12.5764 7.61711 12.1117 8.58503 11.7983 9.59809L15.6196 10.7803C15.8146 10.1501 16.1124 9.51802 16.5273 8.88283L13.1783 6.69555ZM11.7983 9.59809C11.491 10.5913 11.3277 11.5906 11.3277 12.5892H15.3277C15.3277 12.031 15.4185 11.4304 15.6196 10.7803L11.7983 9.59809ZM11.3277 12.5892C11.3277 14.1141 11.7209 15.538 12.5428 16.7963L15.8918 14.6091C15.5275 14.0512 15.3277 13.3994 15.3277 12.5892H11.3277ZM12.6056 16.8869C13.6763 18.3441 15.2538 19 17.0133 19V15C16.3157 15 16.0293 14.791 15.829 14.5185L12.6056 16.8869ZM17.0133 19C18.3267 19 19.4873 18.4949 20.4227 17.6083L17.671 14.7052C17.4202 14.9429 17.2251 15 17.0133 15V19ZM20.372 17.6547C21.446 16.7046 22 15.4413 22 14.0162H18C18 14.3208 17.9186 14.4846 17.7216 14.6588L20.372 17.6547ZM22 14.0162C22 12.7182 21.5254 11.5552 20.6985 10.5812L17.6493 13.1701C17.9239 13.4935 18 13.7574 18 14.0162H22ZM20.7387 10.6301C19.8766 9.54709 18.6774 8.83784 17.204 8.83784V12.8378C17.2557 12.8378 17.3697 12.8205 17.6091 13.1212L20.7387 10.6301ZM17.204 8.83784C16.9493 8.83784 16.7403 8.88859 16.7099 8.89549C16.6308 8.91343 16.5575 8.93379 16.501 8.95025C16.3854 8.98397 16.2528 9.02724 16.1149 9.07416L17.4034 12.861C17.5196 12.8214 17.5883 12.7998 17.6209 12.7903C17.6386 12.7851 17.6262 12.7893 17.5948 12.7964C17.5788 12.8 17.5427 12.8079 17.4934 12.8156C17.4679 12.8196 17.432 12.8247 17.3883 12.829C17.3464 12.833 17.2825 12.8378 17.204 12.8378V8.83784ZM16.3591 9.00798C16.2897 9.02214 16.2446 9.02916 16.22 9.0323C16.2083 9.03379 16.2049 9.03395 16.2086 9.03367C16.2121 9.03342 16.2267 9.03243 16.2508 9.03243V13.0324C16.5734 13.0324 16.8935 12.9814 17.1592 12.9271L16.3591 9.00798ZM15.8508 9.07284C15.7987 9.08347 15.8646 9.06486 15.9966 9.06486C16.0635 9.06486 16.2164 9.06903 16.4117 9.11885C16.5965 9.16601 16.9629 9.29064 17.2981 9.63277L14.4409 12.4321C14.7973 12.7958 15.1955 12.9367 15.4227 12.9947C15.6603 13.0553 15.8662 13.0649 15.9966 13.0649C16.2556 13.0649 16.491 13.0246 16.6508 12.992L15.8508 9.07284ZM17.6656 10.1527C17.7956 10.418 17.806 10.6336 17.806 10.7081H13.806C13.806 11.0421 13.8587 11.4739 14.0734 11.9122L17.6656 10.1527Z" fill="#6F6F6F" mask="url(#path-1-outside-1_322_14263)"/>
</svg>
