<svg width="24" height="24" viewBox="0 0 24 24" fill="none" xmlns="http://www.w3.org/2000/svg">
<path d="M5 12C5 8.13401 8.13401 5 12 5C13.9587 5 15.7295 5.80447 17 7.10102" stroke="#6F6F6F" stroke-width="2" stroke-linecap="round" stroke-linejoin="round"/>
<path d="M19.5 5.44853V9.4C19.5 9.45523 19.4552 9.5 19.4 9.5H15.4485C15.4192 9.5 15.4026 9.49219 15.3916 9.4844C15.3783 9.47501 15.3649 9.45944 15.3561 9.43827C15.3474 9.4171 15.3458 9.39664 15.3486 9.38058C15.3509 9.36726 15.3571 9.35001 15.3778 9.32929L19.3293 5.37782C19.35 5.35709 19.3673 5.3509 19.3806 5.34859C19.3966 5.34581 19.4171 5.34737 19.4383 5.35614C19.4594 5.36491 19.475 5.37827 19.4844 5.39159C19.4922 5.40265 19.5 5.41922 19.5 5.44853Z" fill="#6F6F6F" stroke="#6F6F6F"/>
<path d="M19 13C19 16.866 15.866 20 12 20C10.0413 20 8.27052 19.1955 7 17.899" stroke="#6F6F6F" stroke-width="2" stroke-linecap="round" stroke-linejoin="round"/>
<path d="M4.5 19.5515V15.6C4.5 15.5448 4.54477 15.5 4.6 15.5H8.55147C8.58078 15.5 8.59735 15.5078 8.60841 15.5156C8.62173 15.525 8.63509 15.5406 8.64386 15.5617C8.65263 15.5829 8.65419 15.6034 8.65141 15.6194C8.6491 15.6327 8.64291 15.65 8.62218 15.6707L4.67071 19.6222C4.64999 19.6429 4.63274 19.6491 4.61942 19.6514C4.60336 19.6542 4.5829 19.6526 4.56173 19.6439C4.54056 19.6351 4.52499 19.6217 4.5156 19.6084C4.50781 19.5974 4.5 19.5808 4.5 19.5515Z" fill="#6F6F6F" stroke="#6F6F6F"/>
</svg>
