<svg width="24" height="24" viewBox="0 0 24 24" fill="none" xmlns="http://www.w3.org/2000/svg">
<path fill-rule="evenodd" clip-rule="evenodd" d="M10.7071 17.7071C10.3166 18.0976 9.68342 18.0976 9.29289 17.7071L4.29289 12.7071C3.90237 12.3166 3.90237 11.6834 4.29289 11.2929L9.29289 6.29289C9.68342 5.90237 10.3166 5.90237 10.7071 6.29289C11.0976 6.68342 11.0976 7.31658 10.7071 7.70711L6.41421 12L10.7071 16.2929C11.0976 16.6834 11.0976 17.3166 10.7071 17.7071Z" fill="#6F6F6F"/>
<path fill-rule="evenodd" clip-rule="evenodd" d="M5 12C5 11.4477 5.44772 11 6 11H19C19.5523 11 20 11.4477 20 12C20 12.5523 19.5523 13 19 13H6C5.44772 13 5 12.5523 5 12Z" fill="#6F6F6F"/>
</svg>
