<svg width="24" height="24" viewBox="0 0 24 24" fill="none" xmlns="http://www.w3.org/2000/svg">
<g clip-path="url(#clip0_322_14272)">
<path d="M8.1397 14.8419L5.1195 11.8217M5.1195 11.8217L3.8281 10.5303C3.48531 10.1875 3.29272 9.72261 3.29272 9.23782C3.29272 8.22829 4.11111 7.40991 5.12063 7.40991C5.60542 7.40991 6.07036 7.60249 6.41316 7.94529L10.4016 11.9338M5.1195 11.8217C4.77679 11.4795 4.31226 11.2873 3.82791 11.2873C2.81838 11.2873 2 12.1057 2 13.1152C2 13.6 2.19258 14.0649 2.53538 14.4077L8.1395 20.0119C12.0173 23.8896 20.4187 21.9508 19.2064 14.3222L17.5099 7.9911C17.3844 7.52282 17.0781 7.12357 16.6583 6.88118C15.784 6.37641 14.666 6.67596 14.1613 7.55024C13.9189 7.97008 13.8532 8.46902 13.9787 8.93729L14.4924 10.8544L10.2905 6.65257C9.94775 6.30977 9.48281 6.11719 8.99802 6.11719C7.98849 6.11719 7.17011 6.93557 7.17011 7.9451C7.17011 8.42989 7.36269 8.89483 7.70549 9.23762L9.43203 10.9642M5.1195 11.8217L7.81637 14.5186" stroke="#6F6F6F" stroke-width="2" stroke-linecap="round" stroke-linejoin="round"/>
<path fill-rule="evenodd" clip-rule="evenodd" d="M11.4123 6.35988C11.5621 6.20994 11.7692 6.11719 11.9979 6.11719C12.2175 6.11719 12.4281 6.20441 12.5833 6.35968L13.2876 7.06395C13.2902 7.05937 13.2928 7.0548 13.2955 7.05024C13.6531 6.43088 14.2096 5.99797 14.8377 5.78559L13.9976 4.94546C13.4672 4.41513 12.7479 4.11719 11.9979 4.11719C11.0852 4.11719 10.2735 4.54959 9.75641 5.22071C10.2217 5.35021 10.6504 5.59794 10.9979 5.94546L11.4123 6.35988ZM19.8442 18.5292C19.7198 18.8581 19.5725 19.1713 19.4038 19.4685C18.8091 20.5162 17.9709 21.3241 17.0062 21.8965C17.6746 21.8166 18.3286 21.6551 18.9465 21.413C20.351 20.8627 21.5997 19.8845 22.4035 18.4685C23.2095 17.0486 23.527 15.2615 23.1939 13.1653C23.1884 13.131 23.1812 13.097 23.1722 13.0634L21.4758 6.73227C21.2816 6.00782 20.8077 5.39016 20.1582 5.01515L19.6582 5.88118L20.1582 5.01515C18.9152 4.29752 17.3538 4.63074 16.5029 5.73918C16.7273 5.80178 16.9475 5.89333 17.1585 6.01515C17.5487 6.24044 17.8755 6.55329 18.1164 6.92427C18.3707 6.6279 18.8076 6.54484 19.1582 6.7472C19.3483 6.85699 19.4871 7.03782 19.5439 7.24992L21.2265 13.5294C21.4862 15.223 21.2083 16.5227 20.6642 17.4812C20.4396 17.8768 20.1629 18.2265 19.8442 18.5292ZM5.87903 6.51343C6.07376 6.56763 6.26209 6.64254 6.44073 6.73681C6.70225 6.18423 7.13759 5.72998 7.67616 5.44462C6.94698 5.55971 6.31044 5.95348 5.87903 6.51343Z" fill="#6F6F6F"/>
<path d="M16.2545 1.55957L15.0204 3.79049L17.7807 2.85209L16.2545 1.55957Z" fill="#6F6F6F"/>
<path d="M11.9095 0.500488L12.2833 3.02245L10.0271 1.17598L11.9095 0.500488Z" fill="#6F6F6F"/>
<path d="M13.3189 0.383721L13.6111 3.90717L15.4914 0.913129L13.3189 0.383721Z" fill="#6F6F6F"/>
</g>
<defs>
<clipPath id="clip0_322_14272">
<rect width="24" height="24" fill="white"/>
</clipPath>
</defs>
</svg>
