<svg width="24" height="24" viewBox="0 0 24 24" fill="none" xmlns="http://www.w3.org/2000/svg">
<path d="M6.5 8.5C5.39543 8.5 4.5 7.60457 4.5 6.5V4.5H5.5V6.5C5.5 7.05228 5.94772 7.5 6.5 7.5H17.5C18.0523 7.5 18.5 7.05229 18.5 6.5V4.5H19.5V6.5C19.5 7.60457 18.6046 8.5 17.5 8.5H6.5ZM6.5 16.5C5.94772 16.5 5.5 16.9477 5.5 17.5V19.5H4.5V17.5C4.5 16.3954 5.39543 15.5 6.5 15.5H17.5C18.6046 15.5 19.5 16.3954 19.5 17.5V19.5H18.5V17.5C18.5 16.9477 18.0523 16.5 17.5 16.5H6.5Z" fill="#6F6F6F" stroke="#6F6F6F"/>
</svg>
