<svg width="20" height="20" viewBox="0 0 20 20" fill="none" xmlns="http://www.w3.org/2000/svg">
<path d="M6.45837 13.7501L10.4112 13.75C11.639 13.75 12.5964 14.8135 12.4679 16.0346V16.0346C12.3653 17.0094 11.5858 17.8015 10.6111 17.698C10.0929 17.6429 9.55678 17.5257 9.1667 17.2917" stroke="#A1A1A3" stroke-width="1.25" stroke-linecap="round"/>
<path d="M1.45837 13.75H2.70837" stroke="#A1A1A3" stroke-width="1.25" stroke-linecap="round"/>
<path d="M1.45837 5.83325H2.08337" stroke="#A1A1A3" stroke-width="1.25" stroke-linecap="round"/>
<path d="M8.54175 9.95644H16.5408C17.5308 9.95644 18.3334 10.759 18.3334 11.7491V11.7491C18.3334 12.7391 17.5308 13.5417 16.5408 13.5417H16.2501" stroke="#A1A1A3" stroke-width="1.25" stroke-linecap="round"/>
<path d="M1.45837 10H5.20837" stroke="#A1A1A3" stroke-width="1.25" stroke-linecap="round"/>
<path d="M5.625 6.04159H12.6042C13.6972 6.04159 14.5833 5.15548 14.5833 4.06242V4.06242C14.5833 2.96935 13.6972 2.08325 12.6042 2.08325H11.25" stroke="#A1A1A3" stroke-width="1.25" stroke-linecap="round"/>
</svg>
