<svg width="24" height="24" viewBox="0 0 24 24" fill="none" xmlns="http://www.w3.org/2000/svg">
<path d="M17 10.101C15.7295 8.80447 13.9587 8 12 8C8.13401 8 5 11.134 5 15V16.75" stroke="#6F6F6F" stroke-width="2" stroke-linecap="round" stroke-linejoin="round"/>
<path d="M19.5 8.44853V12.4C19.5 12.4552 19.4552 12.5 19.4 12.5H15.4485C15.4192 12.5 15.4026 12.4922 15.3916 12.4844C15.3783 12.475 15.3649 12.4594 15.3561 12.4383C15.3474 12.4171 15.3458 12.3966 15.3486 12.3806C15.3509 12.3673 15.3571 12.35 15.3778 12.3293L19.3293 8.37782C19.35 8.35709 19.3673 8.3509 19.3806 8.34859C19.3966 8.34581 19.4171 8.34737 19.4383 8.35614C19.4594 8.36491 19.475 8.37827 19.4844 8.39159C19.4922 8.40265 19.5 8.41922 19.5 8.44853Z" fill="#6F6F6F" stroke="#6F6F6F"/>
</svg>
