<svg width="24" height="24" viewBox="0 0 24 24" fill="none" xmlns="http://www.w3.org/2000/svg">
<path d="M7 10.101C8.27052 8.80447 10.0413 8 12 8C15.866 8 19 11.134 19 15V16.75" stroke="#6F6F6F" stroke-width="2" stroke-linecap="round" stroke-linejoin="round"/>
<path d="M4.5 8.44853V12.4C4.5 12.4552 4.54477 12.5 4.6 12.5H8.55147C8.58078 12.5 8.59735 12.4922 8.60841 12.4844C8.62173 12.475 8.63509 12.4594 8.64386 12.4383C8.65263 12.4171 8.65419 12.3966 8.65141 12.3806C8.6491 12.3673 8.64291 12.35 8.62218 12.3293L4.67071 8.37782C4.64999 8.35709 4.63274 8.3509 4.61942 8.34859C4.60336 8.34581 4.5829 8.34737 4.56173 8.35614C4.54056 8.36491 4.52499 8.37827 4.5156 8.39159C4.50781 8.40265 4.5 8.41922 4.5 8.44853Z" fill="#6F6F6F" stroke="#6F6F6F"/>
</svg>
