<svg width="24" height="24" viewBox="0 0 24 24" fill="none" xmlns="http://www.w3.org/2000/svg">
<path d="M10.8267 8.27273C10.3927 8.27273 9.54491 8.27273 7.911 8.27273C4.02969 8.27273 4.02964 14.2727 7.911 14.2727C8.33025 14.2727 8.69774 14.2727 9.01976 14.2727C9.95273 14.2727 10.5041 14.2727 10.8267 14.2727M10.8267 8.27273C11.4237 8.27273 11.2377 8.27273 11.2377 8.27273C14.6425 8.06071 19 5 19 5V17C19 17 14.3602 14.2403 11.2377 14.2727C11.2377 14.2727 11.4237 14.2727 10.8267 14.2727M10.8267 8.27273V14.2727" stroke="#6F6F6F" stroke-width="2" stroke-linecap="round" stroke-linejoin="round"/>
<path d="M8.5 15C8.54551 16.5655 9.5 17.5 9.5 17.5" stroke="#6F6F6F" stroke-width="3" stroke-linecap="round" stroke-linejoin="round"/>
</svg>
