<svg width="12" height="12" viewBox="0 0 12 12" fill="none" xmlns="http://www.w3.org/2000/svg">
<path d="M9.88004 4.825C9.79384 4.92578 9.67114 4.9882 9.53893 4.99852C9.40671 5.00883 9.27581 4.9662 9.17503 4.88L6.50003 2.585V10.5C6.50003 10.7761 6.27618 11 6.00003 11C5.72389 11 5.50003 10.7761 5.50003 10.5V2.585L2.82503 4.88C2.61517 5.05949 2.29953 5.03486 2.12003 4.825C1.94054 4.61513 1.96517 4.29949 2.17503 4.12L5.67503 1.12C5.7006 1.10312 5.72733 1.08808 5.75503 1.075L5.81503 1.035C5.93383 0.987684 6.06624 0.987684 6.18503 1.035L6.24503 1.075C6.27274 1.08808 6.29947 1.10312 6.32503 1.12L9.82504 4.12C9.92582 4.20619 9.98824 4.32889 9.99856 4.4611C10.0089 4.59332 9.96624 4.72422 9.88004 4.825Z" fill="#A1A1A3"/>
</svg>
