<svg width="24" height="24" viewBox="0 0 24 24" fill="none" xmlns="http://www.w3.org/2000/svg">
<path d="M8.49951 17.5C8.49951 18.6046 7.60408 19.5 6.49951 19.5H4.49951V18.5H6.49951C7.0518 18.5 7.49951 18.0523 7.49951 17.5L7.49951 6.5C7.49951 5.94772 7.0518 5.5 6.49951 5.5L4.49951 5.5L4.49951 4.5L6.49951 4.5C7.60408 4.5 8.49951 5.39543 8.49951 6.5L8.49951 17.5ZM16.4995 17.5C16.4995 18.0523 16.9472 18.5 17.4995 18.5H19.4995V19.5H17.4995C16.4643 19.5 15.6122 18.7131 15.5099 17.7051C15.503 17.6378 15.4995 17.5694 15.4995 17.5L15.4995 6.5C15.4995 5.39543 16.3949 4.5 17.4995 4.5L19.4995 4.5V5.5L17.4995 5.5C16.9472 5.5 16.4995 5.94772 16.4995 6.5L16.4995 17.5Z" fill="#6F6F6F" stroke="#6F6F6F"/>
</svg>
