<svg width="24" height="24" viewBox="0 0 24 24" fill="none" xmlns="http://www.w3.org/2000/svg">
<path d="M12 18.8633C12.2255 18.7364 12.5255 18.5617 12.8773 18.3424C13.6908 17.8353 14.771 17.0966 15.8463 16.1677C18.0459 14.2679 20 11.769 20 8.98113C20 6.89409 18.2404 5.00005 16.1897 5L12 18.8633ZM12 18.8633C11.7745 18.7364 11.4745 18.5617 11.1227 18.3424C10.3092 17.8353 9.22901 17.0966 8.15366 16.1677C5.95405 14.2679 4 11.769 4 8.98113C4 6.89409 5.75963 5.00005 7.81026 5L12 18.8633ZM12 8.38413L11.1341 6.88506C10.4665 5.72937 9.19944 5.00015 7.81034 5L12 8.38413ZM12 8.38413L12.8659 6.88506M12 8.38413L12.8659 6.88506M12.8659 6.88506C13.5335 5.72937 14.8006 5.00015 16.1897 5L12.8659 6.88506Z" stroke="#6F6F6F" stroke-width="2"/>
</svg>
