<svg width="24" height="24" viewBox="0 0 24 24" fill="none" xmlns="http://www.w3.org/2000/svg">
<path d="M6 16.2298V8.77023C6 8.44624 6.36504 8.25667 6.63007 8.44302L11.8301 12.0993C11.9366 12.1742 12 12.2963 12 12.4265V12.5735C12 12.7037 11.9366 12.8258 11.8301 12.9007L6.63007 16.557C6.36504 16.7433 6 16.5538 6 16.2298Z" stroke="#6F6F6F" stroke-width="2"/>
<path d="M12 16.2298V8.77023C12 8.44624 12.365 8.25667 12.6301 8.44302L17.8301 12.0993C17.9366 12.1742 18 12.2963 18 12.4265V12.5735C18 12.7037 17.9366 12.8258 17.8301 12.9007L12.6301 16.557C12.365 16.7433 12 16.5538 12 16.2298Z" stroke="#6F6F6F" stroke-width="2"/>
</svg>
