<svg width="24" height="24" viewBox="0 0 24 24" fill="none" xmlns="http://www.w3.org/2000/svg">
<path d="M12 13.5H13.457C15.138 13.5 16.5 12.0102 16.5 10.0502C16.5 9.1086 16.1794 8.20561 15.6088 7.53982C15.0381 6.87403 14.2641 6.5 13.457 6.5H7.5H5.043C3.362 6.5 2 7.98983 2 9.94983C2 10.8914 2.3206 11.7944 2.89127 12.4602C3.46195 13.126 4.23595 13.5 5.043 13.5" stroke="#6F6F6F" stroke-width="2" stroke-linecap="round" stroke-linejoin="round"/>
<path d="M12.5 10.5H11.043C9.36198 10.5 7.99998 11.9898 7.99998 13.9498C7.99998 14.8914 8.32058 15.7944 8.89125 16.4602C9.46192 17.126 10.2359 17.5 11.043 17.5H17H19.457C21.138 17.5 22.5 16.0102 22.5 14.0502C22.5 13.1086 22.1794 12.2056 21.6087 11.5398C21.0381 10.874 20.2641 10.5 19.457 10.5" stroke="#6F6F6F" stroke-width="2" stroke-linecap="round" stroke-linejoin="round"/>
</svg>
