<svg width="24" height="24" viewBox="0 0 24 24" fill="none" xmlns="http://www.w3.org/2000/svg">
<path d="M7.719 16.75C7.47423 16.7504 7.23789 16.6607 7.055 16.498L2.83575 12.7474C2.38827 12.3496 2.38826 11.6504 2.83574 11.2526L7.336 7.25203C7.53507 7.08173 7.79304 6.99635 8.05441 7.01426C8.31579 7.03217 8.55969 7.15193 8.73368 7.3478C8.90767 7.54367 8.99785 7.8 8.98482 8.06166C8.97178 8.32332 8.85659 8.56942 8.664 8.74703L5.005 12L8.383 15.002C8.53476 15.1367 8.64197 15.3143 8.69039 15.5114C8.73882 15.7084 8.72617 15.9155 8.65412 16.1051C8.58208 16.2948 8.45404 16.4581 8.28702 16.5733C8.11999 16.6884 7.92188 16.7501 7.719 16.75ZM16.664 16.748L21.1643 12.7474C21.6117 12.3496 21.6117 11.6504 21.1642 11.2527L16.945 7.50203C16.7467 7.32593 16.4867 7.23579 16.222 7.25145C15.9572 7.26711 15.7096 7.38728 15.5335 7.58553C15.3574 7.78378 15.2673 8.04387 15.2829 8.30858C15.2986 8.57328 15.4187 8.82093 15.617 8.99703L18.995 12L15.336 15.252C15.1376 15.4281 15.0173 15.6758 15.0016 15.9406C14.9858 16.2054 15.0759 16.4656 15.252 16.664C15.4281 16.8624 15.6758 16.9827 15.9406 16.9985C16.2054 17.0142 16.4656 16.9241 16.664 16.748ZM11.986 18.165L13.986 6.16503C14.0116 6.03389 14.0106 5.89894 13.9831 5.76818C13.9557 5.63741 13.9023 5.51347 13.8262 5.40368C13.75 5.29389 13.6526 5.20048 13.5398 5.12895C13.4269 5.05743 13.3008 5.00925 13.169 4.98727C13.0372 4.96528 12.9024 4.96993 12.7724 5.00093C12.6424 5.03194 12.52 5.08868 12.4123 5.1678C12.3047 5.24693 12.2139 5.34682 12.1455 5.46159C12.0771 5.57637 12.0324 5.70369 12.014 5.83603L10.014 17.836C9.98842 17.9672 9.98939 18.1021 10.0168 18.2329C10.0443 18.3637 10.0977 18.4876 10.1738 18.5974C10.25 18.7072 10.3474 18.8006 10.4602 18.8721C10.5731 18.9436 10.6992 18.9918 10.8309 19.0138C10.9627 19.0358 11.0976 19.0311 11.2276 19.0001C11.3575 18.9691 11.48 18.9124 11.5877 18.8333C11.6953 18.7541 11.7861 18.6542 11.8545 18.5395C11.9229 18.4247 11.9676 18.2974 11.986 18.165Z" fill="#6F6F6F"/>
</svg>
