<svg width="24" height="24" viewBox="0 0 24 24" fill="none" xmlns="http://www.w3.org/2000/svg">
<path d="M7.153 9.328V10H4.663V9.328H5.503V7.123C5.503 7.067 5.504 7.011 5.506 6.955C5.508 6.897 5.511 6.839 5.515 6.781L5.017 7.195C4.973 7.229 4.929 7.25 4.885 7.258C4.843 7.264 4.803 7.264 4.765 7.258C4.727 7.25 4.693 7.237 4.663 7.219C4.633 7.199 4.611 7.179 4.597 7.159L4.303 6.769L5.665 5.626H6.433V9.328H7.153ZM6.928 17.16C7.028 17.16 7.107 17.188 7.165 17.244C7.223 17.298 7.252 17.37 7.252 17.46V18H4.18V17.7C4.18 17.642 4.192 17.58 4.216 17.514C4.24 17.448 4.282 17.388 4.342 17.334L5.602 16.065C5.71 15.957 5.804 15.854 5.884 15.756C5.964 15.658 6.03 15.562 6.082 15.468C6.134 15.372 6.173 15.277 6.199 15.183C6.225 15.087 6.238 14.986 6.238 14.88C6.238 14.706 6.196 14.573 6.112 14.481C6.03 14.387 5.904 14.34 5.734 14.34C5.596 14.34 5.479 14.377 5.383 14.451C5.289 14.523 5.224 14.613 5.188 14.721C5.146 14.831 5.091 14.904 5.023 14.94C4.955 14.976 4.858 14.984 4.732 14.964L4.24 14.877C4.272 14.659 4.333 14.469 4.423 14.307C4.515 14.145 4.628 14.01 4.762 13.902C4.898 13.794 5.053 13.714 5.227 13.662C5.401 13.608 5.588 13.581 5.788 13.581C6.004 13.581 6.198 13.613 6.37 13.677C6.544 13.739 6.692 13.826 6.814 13.938C6.936 14.05 7.029 14.184 7.093 14.34C7.159 14.494 7.192 14.664 7.192 14.85C7.192 15.01 7.169 15.158 7.123 15.294C7.079 15.43 7.018 15.56 6.94 15.684C6.862 15.806 6.771 15.925 6.667 16.041C6.565 16.155 6.456 16.271 6.34 16.389L5.485 17.265C5.595 17.231 5.704 17.205 5.812 17.187C5.92 17.169 6.02 17.16 6.112 17.16H6.928Z" fill="#6F6F6F"/>
<path d="M10 12H16.4" stroke="#6F6F6F" stroke-width="2" stroke-linecap="round" stroke-linejoin="round"/>
<path d="M10 7H18" stroke="#6F6F6F" stroke-width="2" stroke-linecap="round" stroke-linejoin="round"/>
<path d="M10 17H18" stroke="#6F6F6F" stroke-width="2" stroke-linecap="round" stroke-linejoin="round"/>
</svg>
