<svg width="40" height="40" viewBox="0 0 40 40" fill="none" xmlns="http://www.w3.org/2000/svg">
<path fill-rule="evenodd" clip-rule="evenodd" d="M18.6489 33.7916V37.1528H20.8897V33.7916H18.6489ZM12.0176 20H9.79183C9.73268 20.6289 9.68571 21.2242 9.68571 21.4672C9.68571 27.0362 14.2003 31.5508 19.7693 31.5508C25.3384 31.5508 29.853 27.0362 29.853 21.4672C29.853 20.9689 29.8168 20.479 29.747 20H27.4751C27.5651 20.4753 27.6122 20.9657 27.6122 21.4672C27.6122 25.7987 24.1008 29.31 19.7693 29.31C15.4379 29.31 11.9265 25.7987 11.9265 21.4672C11.9265 20.7762 11.963 20.3114 12.0176 20ZM29.8824 28.5997L32.7933 30.2803L33.9137 28.3397L31.0028 26.6591L29.8824 28.5997ZM26.6419 35.6115L24.9613 32.7006L26.9019 31.5802L28.5825 34.4911L26.6419 35.6115ZM12.6368 31.5802L10.9562 34.4911L12.8968 35.6115L14.5774 32.7006L12.6368 31.5802ZM5.625 28.3397L8.53589 26.6591L9.65629 28.5997L6.7454 30.2803L5.625 28.3397ZM35.455 22.5876H32.0938V20.3468H35.455V22.5876Z" fill="url(#paint0_linear_544_35848)"/>
<path d="M7.73633 20.3467L4.37512 20.3467L4.37512 22.5875L7.73633 22.5875L7.73633 20.3467Z" fill="url(#paint1_linear_544_35848)"/>
<path fill-rule="evenodd" clip-rule="evenodd" d="M21.3498 14.2754L20.6252 15L19.906 14.2808C19.9022 14.2772 19.8986 14.2736 19.8949 14.2699L13.323 7.69797C13.3193 7.69429 13.3157 7.6906 13.312 7.68688L12.6055 6.9803L11.8752 6.25008L13.3357 4.78966L14.0659 5.51987L19.5924 11.0464L19.5924 1.39052V0.357847H21.6578V1.39052L21.6578 11.0465L27.1844 5.51987L27.9146 4.78966L29.3751 6.25008L28.6449 6.9803L27.9327 7.69242C27.9309 7.69427 27.9291 7.69612 27.9272 7.69797L21.3554 14.2698L21.3553 14.2699C21.3535 14.2717 21.3516 14.2736 21.3498 14.2754Z" fill="url(#paint2_linear_544_35848)"/>
<rect width="33.75" height="2.125" transform="matrix(1 0 0 -1 3.125 18.125)" fill="#D9E2F3"/>
<defs>
<linearGradient id="paint0_linear_544_35848" x1="20.54" y1="37.1528" x2="20.54" y2="20" gradientUnits="userSpaceOnUse">
<stop stop-color="#EFC977"/>
<stop offset="1" stop-color="#E07256"/>
</linearGradient>
<linearGradient id="paint1_linear_544_35848" x1="8.12512" y1="19.9998" x2="6.05572" y2="22.5875" gradientUnits="userSpaceOnUse">
<stop stop-color="#E17657"/>
<stop offset="1" stop-color="#E79764"/>
</linearGradient>
<linearGradient id="paint2_linear_544_35848" x1="20.6252" y1="15" x2="20.6252" y2="0.357746" gradientUnits="userSpaceOnUse">
<stop stop-color="#B2D4F7"/>
<stop offset="1" stop-color="#D9E2F3"/>
</linearGradient>
</defs>
</svg>
