<svg width="135" height="80" viewBox="0 0 135 80" fill="none" xmlns="http://www.w3.org/2000/svg">
<circle cx="114.609" cy="53.0544" r="20.3149" fill="#FFD439"/>
<rect x="89.5674" width="32.0016" height="73.1657" rx="16.0008" transform="rotate(30 89.5674 0)" fill="#B7D0FF"/>
<path fill-rule="evenodd" clip-rule="evenodd" d="M54.9101 56.5313C55.2097 61.984 52.7089 67.4506 47.8446 70.7131C40.5056 75.6354 30.5657 73.6764 25.6433 66.3373L2.71383 32.1505C-2.20855 24.8114 -0.24946 14.8716 7.08959 9.9492C14.4286 5.02682 24.3685 6.98591 29.2909 14.325L35.8679 24.131C35.5683 18.6784 38.0692 13.2117 42.9334 9.9492C50.2725 5.02679 60.2124 6.98589 65.1348 14.325L88.0642 48.5117C92.9867 55.8507 91.0276 65.7906 83.6885 70.7131C76.3494 75.6355 66.4095 73.6764 61.4871 66.3373L54.9101 56.5313Z" fill="white"/>
</svg>
