<svg width="32" height="32" viewBox="0 0 32 32" fill="none" xmlns="http://www.w3.org/2000/svg">
<path fill-rule="evenodd" clip-rule="evenodd" d="M29.8176 8.76695C30.0311 7.96995 30.0538 7.16679 29.9137 6.40596C29.3727 7.64418 28.0002 8.34514 26.647 8.00215C26.2044 7.88994 25.813 7.67848 25.4908 7.39758C25.3504 7.2941 25.2227 7.17372 25.1106 7.03882C24.9137 6.8019 24.7697 6.52564 24.6881 6.22853L24.6798 6.19737C24.505 5.69531 24.4703 5.1382 24.6104 4.58438C24.8941 3.46358 25.8142 2.67216 26.8871 2.49808C26.612 2.37102 26.3224 2.2656 26.0199 2.18447C23.3257 1.46207 20.5609 2.92338 19.6022 5.48417C20.2285 6.03556 20.7854 6.66411 21.2579 7.35498C21.2599 7.07346 21.2974 6.78754 21.3737 6.50283C21.5872 5.70519 22.0689 5.05152 22.6954 4.61257C22.6632 4.73859 22.6368 4.86627 22.6164 4.99523C22.5225 5.58746 22.5561 6.19291 22.7149 6.77111C22.8737 7.34931 23.154 7.88692 23.5371 8.348C23.9202 8.80908 24.3972 9.18299 24.9363 9.44473C25.4755 9.70648 26.0642 9.85003 26.6632 9.86577C26.7442 9.8679 26.8252 9.86769 26.906 9.86515C26.0848 10.6161 24.9101 10.9446 23.757 10.6354C23.3057 10.5144 22.9004 10.3072 22.554 10.0361C22.6516 10.3517 22.7341 10.6739 22.8006 11.002C22.8668 10.9999 22.9332 10.9988 23 10.9988C24.4183 10.9988 25.7218 11.4913 26.7488 12.3147C28.2074 11.6869 29.3748 10.4209 29.8176 8.76695Z" fill="url(#paint0_linear_22_22647)"/>
<path fill-rule="evenodd" clip-rule="evenodd" d="M30 17C30 20.2381 27.8796 22.9627 25 23.7623V21.6467C26.7314 20.9218 28 19.1518 28 17C28 14.1696 25.8053 12 23.2493 12C22.5272 12 21.8339 12.1732 21.2108 12.4855C21.1791 11.9037 21.0937 11.3367 20.9599 10.7899L20.9569 10.7911C20.0091 6.85004 16.5839 4 12.6083 4C7.92179 4 4 7.96046 4 13C4 16.2291 5.61019 19.0152 8 20.6003V22.9107C4.44938 21.1323 2 17.3628 2 13C2 6.92487 6.74949 2 12.6083 2C17.469 2 21.5661 5.38976 22.821 10.0139C22.9626 10.0047 23.1054 10 23.2493 10C26.9776 10 30 13.134 30 17ZM10.001 22.4091C10.0009 21.9308 10.1533 21.4108 10.3609 20.9244C10.8044 19.8856 11.5 19 11.5 19C11.5 19 12.1643 19.9175 12.609 20.9252C12.8327 21.4321 13.0009 21.9619 13.001 22.4091C13.0013 23.2877 12.33 24 11.5015 24C10.6731 24 10.0013 23.2877 10.001 22.4091ZM15.3609 20.9244C15.1533 21.4108 15.0009 21.9308 15.001 22.4091C15.0013 23.2877 15.6731 24 16.5015 24C17.33 24 18.0013 23.2877 18.001 22.4091C18.0009 21.9619 17.8327 21.4321 17.609 20.9252C17.1643 19.9175 16.5 19 16.5 19C16.5 19 15.8044 19.8856 15.3609 20.9244ZM12.8756 27.4091C12.8754 26.9308 13.0278 26.4108 13.2354 25.9244C13.6789 24.8856 14.3745 24 14.3745 24C14.3745 24 15.0388 24.9175 15.4835 25.9252C15.7072 26.4321 15.8754 26.9619 15.8756 27.4091C15.8758 28.2877 15.2045 29 14.376 29C13.5476 29 12.8758 28.2877 12.8756 27.4091ZM20.3609 20.9244C20.1533 21.4108 20.0009 21.9308 20.001 22.4091C20.0013 23.2877 20.6731 24 21.5015 24C22.33 24 23.0013 23.2877 23.001 22.4091C23.0009 21.9619 22.8327 21.4321 22.609 20.9252C22.1643 19.9175 21.5 19 21.5 19C21.5 19 20.8044 19.8856 20.3609 20.9244ZM17.8905 27.4091C17.8903 26.9308 18.0427 26.4108 18.2503 25.9244C18.6938 24.8856 19.3894 24 19.3894 24C19.3894 24 20.0537 24.9175 20.4984 25.9252C20.7221 26.4321 20.8903 26.9619 20.8904 27.4091C20.8907 28.2877 20.2194 29 19.3909 29C18.5625 29 17.8907 28.2877 17.8905 27.4091Z" fill="url(#paint1_linear_22_22647)"/>
<defs>
<linearGradient id="paint0_linear_22_22647" x1="24.8021" y1="2" x2="24.8021" y2="12.3147" gradientUnits="userSpaceOnUse">
<stop stop-color="#F5BD52"/>
<stop offset="1" stop-color="#F5DA79"/>
</linearGradient>
<linearGradient id="paint1_linear_22_22647" x1="16" y1="2" x2="16" y2="29" gradientUnits="userSpaceOnUse">
<stop stop-color="#95B6F6"/>
<stop offset="1" stop-color="#5193DE"/>
</linearGradient>
</defs>
</svg>
