<svg width="20" height="20" viewBox="0 0 20 20" fill="none" xmlns="http://www.w3.org/2000/svg">
<g clip-path="url(#clip0_544_32286)">
<path d="M10.1108 4.88894V3.77783" stroke="#A1A1A3" stroke-width="1.11111" stroke-linecap="round"/>
<path d="M14.7405 6.37038L15.4812 5.62964" stroke="#A1A1A3" stroke-width="1.11111" stroke-linecap="round"/>
<path d="M5.11084 6.37038L4.3701 5.62964" stroke="#A1A1A3" stroke-width="1.11111" stroke-linecap="round"/>
<path d="M2.51828 11.3704L3.62939 11.3704" stroke="#A1A1A3" stroke-width="1.11111" stroke-linecap="round"/>
<path d="M16.5923 11.3704L17.7034 11.3704" stroke="#A1A1A3" stroke-width="1.11111" stroke-linecap="round"/>
<path d="M10.1112 7.66675C8.06568 7.66675 6.40747 9.32495 6.40747 11.3705C6.40747 12.2044 6.68309 12.974 7.14821 13.593H13.0741C13.5393 12.974 13.8149 12.2044 13.8149 11.3705C13.8149 9.32495 12.1567 7.66675 10.1112 7.66675Z" stroke="#A1A1A3" stroke-width="1.11111"/>
<path d="M4.55542 13.5925H15.6665" stroke="#A1A1A3" stroke-width="1.11111" stroke-linecap="round"/>
<path d="M15.6665 17.2964H10.1109" stroke="#A1A1A3" stroke-width="1.11111" stroke-linecap="round"/>
<path d="M5.6665 17.2964L4.55539 17.2964" stroke="#A1A1A3" stroke-width="1.11111" stroke-linecap="round"/>
</g>
<defs>
<clipPath id="clip0_544_32286">
<rect width="17.7778" height="17.7778" fill="white" transform="translate(1.22266 1)"/>
</clipPath>
</defs>
</svg>
