<svg width="32" height="32" viewBox="0 0 32 32" fill="none" xmlns="http://www.w3.org/2000/svg">
<path fill-rule="evenodd" clip-rule="evenodd" d="M27.5911 19.1055C28.0514 17.3878 28.1146 15.6572 27.837 14.0112C27.4655 15.2031 26.8023 16.2328 25.9471 17.0411L25.9462 17.0497C25.3061 17.68 24.5516 18.184 23.7221 18.5339C22.7902 18.927 21.785 19.1166 20.7739 19.0901C19.7627 19.0635 18.7689 18.8214 17.8589 18.3798C16.9488 17.9383 16.1435 17.3076 15.4969 16.5298C14.8502 15.752 14.377 14.8452 14.109 13.8698C13.841 12.8945 13.7843 11.8732 13.9428 10.8742C14.1012 9.87516 14.4711 8.92149 15.0277 8.07694C15.5469 7.28919 16.2174 6.6133 16.9995 6.08813C17.9969 5.39119 19.1693 4.95189 20.4057 4.8365C19.9857 4.67135 19.5521 4.52814 19.1058 4.40856C12.7042 2.69326 6.12418 6.49225 4.40888 12.8938C2.69358 19.2954 6.49257 25.8755 12.8942 27.5908C19.2958 29.3061 25.8758 25.5071 27.5911 19.1055ZM25.0461 20.266C23.0255 24.5633 18.1598 26.9311 13.4118 25.6589C8.07714 24.2295 4.91131 18.7461 6.34073 13.4115C7.32788 9.7274 10.2484 7.07768 13.7182 6.26147C13.5539 6.46931 13.3983 6.68451 13.252 6.90655C12.5287 8.00389 12.0481 9.24301 11.8422 10.541C11.6364 11.8391 11.71 13.1661 12.0583 14.4334C12.4065 15.7006 13.0213 16.8789 13.8615 17.8895C14.7018 18.9001 15.7481 19.7196 16.9305 20.2933C18.1129 20.867 19.4042 21.1816 20.718 21.2161C22.0318 21.2506 23.3378 21.0042 24.5487 20.4934C24.717 20.4225 24.8828 20.3466 25.0461 20.266ZM25.8604 8.61386L25.336 6.99976L24.8115 8.61386L23.1143 8.61386L24.4874 9.61143L23.9629 11.2255L25.336 10.228L26.709 11.2255L26.1845 9.61143L27.5576 8.61386L25.8604 8.61386ZM19.336 6.99976L19.8604 8.61386L21.5576 8.61386L20.1845 9.61143L20.709 11.2255L19.336 10.228L17.9629 11.2255L18.4874 9.61143L17.1143 8.61386L18.8115 8.61386L19.336 6.99976ZM22.8604 12.6139L22.336 10.9998L21.8115 12.6139L20.1143 12.6139L21.4874 13.6114L20.9629 15.2255L22.336 14.228L23.709 15.2255L23.1845 13.6114L24.5576 12.6139L22.8604 12.6139Z" fill="white"/>
</svg>
