<svg width="33" height="32" viewBox="0 0 33 32" fill="none" xmlns="http://www.w3.org/2000/svg">
<path fill-rule="evenodd" clip-rule="evenodd" d="M15.5 2V5H17.5V2H15.5ZM21.1124 21.2657C22.5759 19.9827 23.5 18.0992 23.5 16C23.5 12.134 20.366 9 16.5 9C12.634 9 9.5 12.134 9.5 16C9.5 16.1418 9.50422 16.2826 9.51253 16.4223C8.82778 16.663 8.18849 17.0002 7.61101 17.4176C7.53795 16.9558 7.5 16.4824 7.5 16C7.5 11.0294 11.5294 7 16.5 7C21.4706 7 25.5 11.0294 25.5 16C25.5 18.4685 24.5062 20.7049 22.8968 22.3309C22.3886 21.8603 21.7825 21.4938 21.1124 21.2657ZM27.5 15H30.5V17H27.5V15ZM28.1243 8.13397L25.5263 9.63397L26.5263 11.366L29.1243 9.86603L28.1243 8.13397ZM21.134 5.97381L22.634 3.37573L24.3661 4.37573L22.8661 6.97381L21.134 5.97381ZM8.63397 4.37573L10.134 6.97381L11.866 5.97381L10.366 3.37573L8.63397 4.37573ZM6.47375 11.366L3.87567 9.86603L4.87567 8.13397L7.47375 9.63397L6.47375 11.366ZM5.5 15H2.5V17H5.5V15ZM28.1244 23.866L25.5263 22.366L26.5263 20.634L29.1244 22.134L28.1244 23.866Z" fill="url(#paint0_linear_650_8339)"/>
<path fill-rule="evenodd" clip-rule="evenodd" d="M12 27.9998C12.0278 27.9998 12.0556 27.9996 12.0833 27.9992H19.4332C19.446 27.9994 19.4588 27.9996 19.4716 27.9998H19.5V27.9999C19.5 27.9999 19.5 27.9999 19.5 27.9999C21.1569 27.9999 22.5 26.6567 22.5 24.9999C22.5 23.343 21.1569 21.9999 19.5 21.9999C18.7306 21.9999 18.0289 22.2895 17.4979 22.7657C17.5021 22.6776 17.5042 22.5891 17.5042 22.5C17.5042 21.8247 17.3825 21.1779 17.1598 20.5802C17.858 20.2097 18.6545 19.9999 19.5 19.9999C22.2614 19.9999 24.5 22.2385 24.5 24.9999C24.5 27.7613 22.2614 29.9999 19.5 29.9999C19.4878 29.9999 19.4756 29.9998 19.4634 29.9998L12.0388 29.9998V29.9997C12.0258 29.9997 12.0129 29.9998 12 29.9998C7.85787 29.9998 4.5 26.6419 4.5 22.4998C4.5 18.3576 7.85787 14.9998 12 14.9998C15.2721 14.9998 18.0548 17.0951 19.0794 20.0173C18.389 20.0748 17.7385 20.2725 17.1564 20.5819C16.378 18.49 14.3631 16.9998 12 16.9998C8.96244 16.9998 6.5 19.4622 6.5 22.4998C6.5 25.5373 8.96244 27.9998 12 27.9998Z" fill="url(#paint1_linear_650_8339)"/>
<defs>
<linearGradient id="paint0_linear_650_8339" x1="16.5" y1="2" x2="16.5" y2="23.866" gradientUnits="userSpaceOnUse">
<stop stop-color="#EFC977"/>
<stop offset="1" stop-color="#E07256"/>
</linearGradient>
<linearGradient id="paint1_linear_650_8339" x1="14.5" y1="14.9998" x2="14.5" y2="29.9999" gradientUnits="userSpaceOnUse">
<stop stop-color="#B2D4F7"/>
<stop offset="1" stop-color="#D9E2F3"/>
</linearGradient>
</defs>
</svg>
