<svg width="32" height="32" viewBox="0 0 32 32" fill="none" xmlns="http://www.w3.org/2000/svg">
<path fill-rule="evenodd" clip-rule="evenodd" d="M23.018 11.2478L23.0172 11.2483L22.0336 9.50681L22.0325 9.5048L22.0345 9.50369C22.567 9.20315 23.1613 9.02872 23.7718 8.99382C23.8603 8.98876 23.9489 8.98665 24.0373 8.98748C24.559 8.99234 25.0757 9.0993 25.5579 9.30325C26.1218 9.54177 26.6234 9.90656 27.0241 10.3695C27.4248 10.8325 27.7139 11.3813 27.8692 11.9737C28.0245 12.5661 28.0417 13.1862 27.9197 13.7863C27.7976 14.3864 27.5395 14.9504 27.1651 15.435C26.8451 15.8493 26.4474 16.1961 25.9952 16.4564C25.9185 16.5005 25.8403 16.5422 25.7606 16.5813C25.2108 16.8508 24.6066 16.9905 23.9944 16.9897V16.9895H4V14.9895H23.9972L23.9972 14.9872C24.303 14.9876 24.6049 14.9178 24.8795 14.7832C25.1541 14.6486 25.3941 14.4527 25.5811 14.2106C25.7681 13.9685 25.897 13.6868 25.958 13.387C26.019 13.0872 26.0104 12.7775 25.9328 12.4816C25.8552 12.1857 25.7108 11.9115 25.5106 11.6802C25.3105 11.449 25.0599 11.2667 24.7782 11.1476C24.4966 11.0284 24.1913 10.9756 23.886 10.993C23.581 11.0105 23.2841 11.0976 23.018 11.2478ZM17.2058 25.7504L4 21.0523V18.9978L18.5239 18.9978V19.0008C19.0376 19.0041 19.5443 19.1204 20.008 19.3417C20.1866 19.4268 20.357 19.5268 20.5178 19.6401C20.7752 19.8217 21.0076 20.0376 21.2083 20.2827C21.5344 20.6809 21.7686 21.1461 21.8943 21.6452C22.0201 22.1442 22.0342 22.6649 21.9357 23.1701C21.8372 23.6753 21.6286 24.1525 21.3246 24.5678C21.0206 24.983 20.6288 25.3261 20.1771 25.5726C19.8991 25.7243 19.6026 25.837 19.2959 25.9085C19.1043 25.9532 18.9088 25.9817 18.7113 25.9936C18.1977 26.0244 17.6836 25.9415 17.2057 25.7508L17.2058 25.7504ZM9.8151 20.998L18.5103 20.998L18.5103 21.0014L18.5103 21.0017L18.5112 21.0017C18.7312 21.0031 18.9483 21.053 19.1468 21.1477C19.3457 21.2426 19.5212 21.3802 19.6608 21.5507C19.8005 21.7212 19.9008 21.9204 19.9546 22.1341C20.0085 22.3478 20.0145 22.5708 19.9723 22.7871C19.9302 23.0035 19.8408 23.2078 19.7106 23.3856C19.5805 23.5635 19.4127 23.7104 19.2193 23.8159C19.0258 23.9215 18.8115 23.983 18.5916 23.9962C18.3847 24.0086 18.1776 23.9779 17.9835 23.9063L17.9842 23.9042L9.8151 20.998Z" fill="url(#paint0_linear_22_23012)"/>
<path fill-rule="evenodd" clip-rule="evenodd" d="M11 7L10.2565 7.52045L10.4142 8.41421L9.52045 8.25648L9 9L8.47955 8.25648L7.58579 8.41421L7.74352 7.52045L7 7L7.74352 6.47955L7.58579 5.58579L8.47955 5.74352L9 5L9.52045 5.74352L10.4142 5.58579L10.2565 6.47955L11 7ZM14.1716 11L13.4281 11.5204L13.5858 12.4142L12.6921 12.2565L12.1716 13L11.6512 12.2565L10.7574 12.4142L10.9152 11.5204L10.1716 11L10.9152 10.4796L10.7574 9.58579L11.6512 9.74352L12.1716 9L12.6921 9.74352L13.5858 9.58579L13.4281 10.4796L14.1716 11ZM19.4281 11.5204L20.1716 11L19.4281 10.4796L19.5858 9.58579L18.6921 9.74352L18.1716 9L17.6512 9.74352L16.7574 9.58579L16.9152 10.4796L16.1716 11L16.9152 11.5204L16.7574 12.4142L17.6512 12.2565L18.1716 13L18.6921 12.2565L19.5858 12.4142L19.4281 11.5204ZM17 7L16.2565 7.52045L16.4142 8.41421L15.5204 8.25648L15 9L14.4796 8.25648L13.5858 8.41421L13.7435 7.52045L13 7L13.7435 6.47955L13.5858 5.58579L14.4796 5.74352L15 5L15.5204 5.74352L16.4142 5.58579L16.2565 6.47955L17 7ZM7.25648 11.5204L8 11L7.25648 10.4796L7.41421 9.58579L6.52045 9.74352L6 9L5.47955 9.74352L4.58579 9.58579L4.74352 10.4796L4 11L4.74352 11.5204L4.58579 12.4142L5.47955 12.2565L6 13L6.52045 12.2565L7.41421 12.4142L7.25648 11.5204Z" fill="url(#paint1_linear_22_23012)"/>
<path fill-rule="evenodd" clip-rule="evenodd" d="M23.018 11.2478L23.0172 11.2483L22.0336 9.50681L22.0325 9.5048L22.0345 9.50369C22.567 9.20315 23.1613 9.02872 23.7718 8.99382C23.8603 8.98876 23.9489 8.98665 24.0373 8.98748C24.559 8.99234 25.0757 9.0993 25.5579 9.30325C26.1218 9.54177 26.6234 9.90656 27.0241 10.3695C27.4248 10.8325 27.7139 11.3813 27.8692 11.9737C28.0245 12.5661 28.0417 13.1862 27.9197 13.7863C27.7976 14.3864 27.5395 14.9504 27.1651 15.435C26.8451 15.8493 26.4474 16.1961 25.9952 16.4564C25.9185 16.5005 25.8403 16.5422 25.7606 16.5813C25.2108 16.8508 24.6066 16.9905 23.9944 16.9897V16.9895H4V14.9895H23.9972L23.9972 14.9872C24.303 14.9876 24.6049 14.9178 24.8795 14.7832C25.1541 14.6486 25.3941 14.4527 25.5811 14.2106C25.7681 13.9685 25.897 13.6868 25.958 13.387C26.019 13.0872 26.0104 12.7775 25.9328 12.4816C25.8552 12.1857 25.7108 11.9115 25.5106 11.6802C25.3105 11.449 25.0599 11.2667 24.7782 11.1476C24.4966 11.0284 24.1913 10.9756 23.886 10.993C23.581 11.0105 23.2841 11.0976 23.018 11.2478ZM17.2058 25.7504L4 21.0523V18.9978L18.5239 18.9978V19.0008C19.0376 19.0041 19.5443 19.1204 20.008 19.3417C20.1866 19.4268 20.357 19.5268 20.5178 19.6401C20.7752 19.8217 21.0076 20.0376 21.2083 20.2827C21.5344 20.6809 21.7686 21.1461 21.8943 21.6452C22.0201 22.1442 22.0342 22.6649 21.9357 23.1701C21.8372 23.6753 21.6286 24.1525 21.3246 24.5678C21.0206 24.983 20.6288 25.3261 20.1771 25.5726C19.8991 25.7243 19.6026 25.837 19.2959 25.9085C19.1043 25.9532 18.9088 25.9817 18.7113 25.9936C18.1977 26.0244 17.6836 25.9415 17.2057 25.7508L17.2058 25.7504ZM9.8151 20.998L18.5103 20.998L18.5103 21.0014L18.5103 21.0017L18.5112 21.0017C18.7312 21.0031 18.9483 21.053 19.1468 21.1477C19.3457 21.2426 19.5212 21.3802 19.6608 21.5507C19.8005 21.7212 19.9008 21.9204 19.9546 22.1341C20.0085 22.3478 20.0145 22.5708 19.9723 22.7871C19.9302 23.0035 19.8408 23.2078 19.7106 23.3856C19.5805 23.5635 19.4127 23.7104 19.2193 23.8159C19.0258 23.9215 18.8115 23.983 18.5916 23.9962C18.3847 24.0086 18.1776 23.9779 17.9835 23.9063L17.9842 23.9042L9.8151 20.998Z" fill="url(#paint2_linear_22_23012)"/>
<path fill-rule="evenodd" clip-rule="evenodd" d="M11 7L10.2565 7.52045L10.4142 8.41421L9.52045 8.25648L9 9L8.47955 8.25648L7.58579 8.41421L7.74352 7.52045L7 7L7.74352 6.47955L7.58579 5.58579L8.47955 5.74352L9 5L9.52045 5.74352L10.4142 5.58579L10.2565 6.47955L11 7ZM14.1716 11L13.4281 11.5204L13.5858 12.4142L12.6921 12.2565L12.1716 13L11.6512 12.2565L10.7574 12.4142L10.9152 11.5204L10.1716 11L10.9152 10.4796L10.7574 9.58579L11.6512 9.74352L12.1716 9L12.6921 9.74352L13.5858 9.58579L13.4281 10.4796L14.1716 11ZM19.4281 11.5204L20.1716 11L19.4281 10.4796L19.5858 9.58579L18.6921 9.74352L18.1716 9L17.6512 9.74352L16.7574 9.58579L16.9152 10.4796L16.1716 11L16.9152 11.5204L16.7574 12.4142L17.6512 12.2565L18.1716 13L18.6921 12.2565L19.5858 12.4142L19.4281 11.5204ZM17 7L16.2565 7.52045L16.4142 8.41421L15.5204 8.25648L15 9L14.4796 8.25648L13.5858 8.41421L13.7435 7.52045L13 7L13.7435 6.47955L13.5858 5.58579L14.4796 5.74352L15 5L15.5204 5.74352L16.4142 5.58579L16.2565 6.47955L17 7ZM7.25648 11.5204L8 11L7.25648 10.4796L7.41421 9.58579L6.52045 9.74352L6 9L5.47955 9.74352L4.58579 9.58579L4.74352 10.4796L4 11L4.74352 11.5204L4.58579 12.4142L5.47955 12.2565L6 13L6.52045 12.2565L7.41421 12.4142L7.25648 11.5204Z" fill="url(#paint3_linear_22_23012)"/>
<defs>
<linearGradient id="paint0_linear_22_23012" x1="16" y1="8.9873" x2="16" y2="25.9998" gradientUnits="userSpaceOnUse">
<stop stop-color="#CED3EA"/>
<stop offset="1" stop-color="#7E83A9"/>
</linearGradient>
<linearGradient id="paint1_linear_22_23012" x1="12.0858" y1="5" x2="12.0858" y2="13" gradientUnits="userSpaceOnUse">
<stop stop-color="#B2D4F7"/>
<stop offset="1" stop-color="#D9E2F3"/>
</linearGradient>
<linearGradient id="paint2_linear_22_23012" x1="16" y1="8.9873" x2="16" y2="25.9998" gradientUnits="userSpaceOnUse">
<stop stop-color="#CED3EA"/>
<stop offset="1" stop-color="#7E83A9"/>
</linearGradient>
<linearGradient id="paint3_linear_22_23012" x1="12.0858" y1="5" x2="12.0858" y2="13" gradientUnits="userSpaceOnUse">
<stop stop-color="#B2D4F7"/>
<stop offset="1" stop-color="#D9E2F3"/>
</linearGradient>
</defs>
</svg>
