<svg width="20" height="20" viewBox="0 0 20 20" fill="none" xmlns="http://www.w3.org/2000/svg">
<g clip-path="url(#clip0_543_34730)">
<g clip-path="url(#clip1_543_34730)">
<g clip-path="url(#clip2_543_34730)">
<path d="M5.32269 1.78966L5.32269 1.78966L7.17955 4.83917L7.68897 4.52898L7.17955 4.83917C8.39554 6.83615 6.97867 9.3768 4.75014 9.3768C2.52156 9.3768 1.1047 6.83615 2.32069 4.83917L1.78687 4.51412L2.32069 4.83917L4.17756 1.78967C4.44505 1.35037 5.05521 1.35039 5.32269 1.78966Z" stroke="#A1A1A3" stroke-width="1.24999"/>
<path d="M14.6775 1.78967L14.6775 1.78966C14.9449 1.3504 15.5551 1.35036 15.8226 1.78968L17.6795 4.83917L18.1666 4.54254L17.6795 4.83917C18.8955 6.83615 17.4786 9.3768 15.25 9.3768C13.0214 9.3768 11.6046 6.83615 12.8206 4.83917C12.8206 4.83917 12.8206 4.83917 12.8206 4.83917L14.6775 1.78967Z" stroke="#A1A1A3" stroke-width="1.24999"/>
<path d="M9.42745 10.9564L9.42745 10.9564C9.69492 10.5171 10.3051 10.5171 10.5726 10.9564L12.4295 14.0059L12.4295 14.0059C13.6454 16.0029 12.2286 18.5436 10 18.5436C7.77145 18.5436 6.35459 16.0029 7.57055 14.0059L9.42745 10.9564Z" stroke="#A1A1A3" stroke-width="1.24999"/>
</g>
</g>
</g>
<defs>
<clipPath id="clip0_543_34730">
<rect width="20" height="20" fill="white"/>
</clipPath>
<clipPath id="clip1_543_34730">
<rect width="20" height="20" fill="white"/>
</clipPath>
<clipPath id="clip2_543_34730">
<rect width="19.9999" height="19.9999" fill="white" transform="translate(0.00012207 0.000244141)"/>
</clipPath>
</defs>
</svg>
